<svg width="240" height="636" viewBox="0 0 240 636" xmlns="http://www.w3.org/2000/svg" xmlns:xlink="http://www.w3.org/1999/xlink"><svg width="36" height="27" viewBox="0 0 36 27" id="icon-active-chapters" xmlns="http://www.w3.org/2000/svg"><g fill="none" fill-rule="evenodd"><path fill="none" d="M0-4h36v36H0z"/><g stroke="#001135"><path d="M14.564.6H1.171v23.36h13.393c1.932 0 3.497.937 3.497 2.868V4.097A3.497 3.497 0 0 0 14.564.6z"/><path d="M4.074 4.922h9.508M4.074 8.694h10.294M4.074 12.466h10.294M4.074 16.238h10.294M4.074 20.01h10.294" stroke-linecap="round" stroke-linejoin="round"/><path d="M21.558.6h13.394v23.36H21.558c-1.93 0-3.496.937-3.496 2.868V4.097A3.497 3.497 0 0 1 21.558.6z"/><path d="M32.05 4.922h-9.51M32.05 8.694H21.754M32.05 12.466H21.754M32.05 16.238H21.754M32.05 20.01H21.754" stroke-linecap="round" stroke-linejoin="round"/></g></g></svg><svg width="24" height="36" viewBox="0 0 24 36" id="icon-countries" y="27" xmlns="http://www.w3.org/2000/svg"><g fill="none" fill-rule="evenodd"><path fill="none" d="M-6 0h36v36H-6z"/><g stroke="#001135" stroke-linecap="round" stroke-linejoin="round"><path d="M.588 1.256v33.488M23.612 18H.588V3.349h23.024l-7.974 7.325z"/></g></g></svg><svg width="42" height="42" viewBox="0 0 42 42" id="icon-globe-40" y="63" xmlns="http://www.w3.org/2000/svg"><g stroke="#124191" stroke-width="1.2" fill="none" fill-rule="evenodd"><path d="M40.66 21.085c0 10.811-8.764 19.575-19.575 19.575S1.511 31.896 1.511 21.085 10.274 1.511 21.085 1.511c10.811 0 19.575 8.763 19.575 19.574zM1.51 21h39.15"/><path d="M6.297 8.183c2.16 1.332 5.15 3.56 14.788 3.56 9.639 0 12.175-2.161 14.716-3.56M36.034 33.722c-2.16-1.332-5.382-3.74-15.021-3.74-9.64 0-12.386 2.282-14.929 3.68"/><path d="M29.538 21.085c0 10.811-3.708 19.575-8.28 19.575-4.574 0-8.281-8.764-8.281-19.575s3.707-19.574 8.28-19.574c4.573 0 8.28 8.763 8.28 19.574z"/></g></svg><svg width="41" height="41" viewBox="0 0 41 41" id="icon-growth" y="105" xmlns="http://www.w3.org/2000/svg"><g stroke="#124191" fill="none" fill-rule="evenodd"><path d="M1 0v40h40M39.93 8.23L38.23 3 33 4.7"/><path d="M5 36l8.102-14.284h14.499L38 3"/></g></svg><svg width="33" height="41" viewBox="0 0 33 41" id="icon-innovation" y="146" xmlns="http://www.w3.org/2000/svg"><defs><path id="ea" d="M0 .472h9.65v4.255H0z"/></defs><g fill="none" fill-rule="evenodd"><g transform="translate(12.174 35.701)"><mask id="eb" fill="#fff"><use xlink:href="#ea"/></mask><use fill="#FFF" xlink:href="#ea"/><ellipse stroke="#124191" mask="url(#eb)" cx="4.825" cy=".884" rx="3.321" ry="3.371"/></g><path d="M10.954 30.55C5.407 28.298 1.49 22.814 1.49 16.406 1.49 7.991 8.244 1.17 16.575 1.17c8.332 0 15.085 6.822 15.085 15.237a15.25 15.25 0 0 1-8.672 13.795l-.824 6.178H11.732l-.778-5.83z" stroke="#124191" stroke-linecap="square"/><g stroke="#124191"><path d="M16.745 9.126v12.335M16.745 23.928v2.031"/></g></g></svg><svg width="34" height="34" viewBox="0 0 34 34" id="icon-male-member" y="187" xmlns="http://www.w3.org/2000/svg"><g fill="none" fill-rule="evenodd"><path fill="none" d="M-1-1h36v36H-1z"/><g stroke="#001135" stroke-linecap="round" stroke-linejoin="round"><path d="M.675 20.195c0-7.24 5.87-13.111 13.111-13.111 7.241 0 13.112 5.87 13.112 13.111 0 7.241-5.87 13.112-13.112 13.112-7.24 0-13.111-5.87-13.111-13.112zM25.35.629h7.736v7.736M33.087.629L22.922 10.794"/></g></g></svg><svg width="36" height="29" viewBox="0 0 36 29" id="icon-members" y="221" xmlns="http://www.w3.org/2000/svg"><g fill="none" fill-rule="evenodd"><path fill="none" d="M0-3h36v36H0z"/><g stroke="#001135"><path d="M17.892 28.378a8.352 8.352 0 0 0-4.967-7.634 4.995 4.995 0 0 0 1.625-3.687 5.013 5.013 0 1 0-10.027 0c0 1.46.628 2.77 1.625 3.687a8.352 8.352 0 0 0-4.967 7.634M34.604 28.378a8.352 8.352 0 0 0-4.967-7.634 4.995 4.995 0 0 0 1.624-3.687 5.013 5.013 0 1 0-10.027 0c0 1.46.629 2.77 1.625 3.687a8.352 8.352 0 0 0-4.967 7.634"/><path d="M24.722 12.277a8.398 8.398 0 0 0-3.441-2.824 4.995 4.995 0 0 0 1.625-3.687 5.014 5.014 0 0 0-10.027 0c0 1.46.628 2.77 1.625 3.687a8.4 8.4 0 0 0-3.444 2.826"/></g></g></svg><svg width="24" height="24" viewBox="0 0 24 24" id="icon-microphone" y="250" xmlns="http://www.w3.org/2000/svg"><g stroke="#000" fill="none" fill-rule="evenodd"><path d="M12.301 2.807a2.358 2.358 0 0 0-2.357 2.358v6.089a2.358 2.358 0 0 0 4.715 0v-6.09A2.358 2.358 0 0 0 12.3 2.808z" stroke-linecap="round"/><path d="M17.406 11.023a5.105 5.105 0 0 1-10.21 0M12.301 16.127v3.167M9.43 20.152h5.805" stroke-linecap="square"/></g></svg><svg width="41" height="42" viewBox="0 0 41 42" id="icon-opportunities" y="274" xmlns="http://www.w3.org/2000/svg"><g transform="translate(1 1)" fill="none" fill-rule="evenodd"><circle stroke="#124191" cx="15.5" cy="15.5" r="15.5"/><path d="M19.085 9.888c-.374-.235-.84-.443-1.402-.623-.56-.18-1.215-.27-1.962-.27-1.15 0-2.025.274-2.628.82-.602.548-.903 1.257-.903 2.13 0 .415.048.768.145 1.059.097.29.263.55.499.779.235.228.543.44.924.633.38.194.855.395 1.423.602l1.246.437c1.19.415 2.046.941 2.565 1.578.52.637.779 1.42.779 2.347 0 .526-.097 1.025-.291 1.495a3.61 3.61 0 0 1-.872 1.257c-.388.367-.876.658-1.465.872-.588.215-1.277.322-2.066.322a7.49 7.49 0 0 1-1.402-.124 8.967 8.967 0 0 1-1.205-.312 8.39 8.39 0 0 1-.976-.395 5.98 5.98 0 0 1-.675-.373l.374-.769c.208.125.433.256.675.395.242.138.52.263.83.374a7.109 7.109 0 0 0 2.399.395c.513 0 .998-.056 1.454-.167.457-.11.859-.287 1.205-.53.346-.242.623-.557.83-.945.209-.387.312-.858.312-1.412 0-.83-.249-1.502-.747-2.015-.499-.512-1.226-.92-2.181-1.225l-1.1-.353c-1.192-.402-2.081-.9-2.67-1.495-.588-.596-.882-1.406-.882-2.43 0-.471.083-.932.249-1.382.166-.45.43-.851.79-1.204.36-.353.823-.637 1.39-.852.568-.214 1.254-.322 2.057-.322.29 0 .599.025.924.073.325.049.65.114.976.197.326.083.634.184.924.302.291.117.554.245.79.384l-.333.747z" fill="#124191"/><path d="M15.58 25.385v-2.72M15.58 8.462v-2.72M26.66 26.917l12.977 12.727" stroke="#124191"/></g></svg><svg id="icon-play-btn-round-dark" viewBox="0 0 72 72" width="72" height="72" y="316" xmlns="http://www.w3.org/2000/svg"><style>.jst0{fill:none}.jst12,.jst13{opacity:.8;fill:#001135}.jst13{fill:#fff}</style><circle class="jst12" cx="36" cy="36" r="32"/><path class="jst13" d="M26.5 48.5c-.1 0-.2 0-.3-.1-.1-.1-.2-.2-.2-.4V24c0-.2.1-.3.2-.4.1-.1.3-.1.5 0l23 12c.2.1.3.3.3.4s-.1.4-.3.4l-23 12c0 .1-.1.1-.2.1zm.5-23.7v22.4L48.4 36 27 24.8z"/><path class="jst0" d="M0 0h72v72H0z"/></svg><svg id="icon-play-btn-round-light" viewBox="0 0 72 72" width="72" height="72" y="388" xmlns="http://www.w3.org/2000/svg"><style>.kst0{fill:none}.kst13,.kst14{opacity:.8;fill:#fff}.kst14{fill:#4d5766}</style><circle class="kst13" cx="36" cy="36" r="32"/><path class="kst14" d="M26.5 48.5c-.1 0-.2 0-.3-.1-.1-.1-.2-.2-.2-.4V24c0-.2.1-.3.2-.4.1-.1.3-.1.5 0l23 12c.2.1.3.3.3.4s-.1.4-.3.4l-23 12c0 .1-.1.1-.2.1zm.5-23.7v22.4L48.4 36 27 24.8z"/><path class="kst0" d="M0 0h72v72H0z"/></svg><svg id="icon-play-btn-square-dark" viewBox="0 0 240 52" width="240" height="52" y="460" xmlns="http://www.w3.org/2000/svg"><style>.lst12,.lst13{opacity:.8;fill:#001135}.lst13{fill:#fff}</style><path class="lst12" d="M0 0h240v52H0z"/><path class="lst13" d="M31.5 32.5c-.1 0-.2 0-.3-.1-.1-.1-.2-.2-.2-.4V20c0-.2.1-.3.2-.4.1-.1.3-.1.5 0l11.5 6c.2.1.3.3.3.4s-.1.4-.3.4l-11.5 6c0 .1-.1.1-.2.1zm.5-11.7v10.4l9.9-5.2-9.9-5.2z"/></svg><svg id="icon-play-btn-square-light" viewBox="0 0 240 52" width="240" height="52" y="512" xmlns="http://www.w3.org/2000/svg"><style>.mst13,.mst14{opacity:.8;fill:#fff}.mst14{fill:#4d5766}</style><path class="mst13" d="M0 0h240v52H0z"/><path class="mst14" d="M31.5 32.5c-.1 0-.2 0-.3-.1-.1-.1-.2-.2-.2-.4V20c0-.2.1-.3.2-.4.1-.1.3-.1.5 0l11.5 6c.2.1.3.3.3.4s-.1.4-.3.4l-11.5 6c0 .1-.1.1-.2.1zm.5-11.7v10.4l9.9-5.2-9.9-5.2z"/></svg><svg width="72" height="72" viewBox="0 0 100 100" preserveAspectRatio="xMidYMid" class="nuil-ring" id="loader-rolling" y="564" xmlns="http://www.w3.org/2000/svg"><path fill="none" class="nbk" d="M0 0h100v100H0z"/><circle cx="50" cy="50" r="49.5" stroke-dasharray="194.38604544086846 116.63162726452109" stroke="#124191" fill="none"/></svg></svg>