<svg width="200" height="3937" viewBox="0 0 200 3937" xmlns="http://www.w3.org/2000/svg" xmlns:xlink="http://www.w3.org/1999/xlink"><svg id="icon-add-to-cart" viewBox="0 0 36 36" width="36" height="36" xmlns="http://www.w3.org/2000/svg"><style>.aast0{fill:#000000}</style><path class="aast0" d="M12.4 19.7c-.4 0-.8.3-.8.8 0 .4.3.8.8.8h15.3c.4 0 .7-.3.7-.6l1.5-7.4c.1-.4-.1-.8-.5-1-.4-.1-.8.1-1 .5v.2L27 19.8H12.4z"/><path class="aast0" d="M21.1 12.4h3v1.5h-3v3h-1.5v-3h-3v-1.5h3v-3h1.5v3z"/><path class="aast0" d="M12.2 24h15.3c.4 0 .8-.3.8-.8 0-.4-.3-.8-.8-.8h-14L10.8 8.8H6.7c-.4 0-.7.4-.7.8s.3.6.7.7h2.9L12.2 24z"/><circle class="aast0" cx="16.3" cy="25.9" r="1.4"/><circle class="aast0" cx="23.9" cy="25.9" r="1.4"/></svg><svg id="icon-add-to-list" viewBox="0 0 24 24" width="24" height="24" y="36" xmlns="http://www.w3.org/2000/svg"><style>.abst0{fill:none}.abst1{fill:#000000}</style><path class="abst1" d="M13 20H5.5c-.3 0-.5-.2-.5-.5v-15c0-.3.2-.5.5-.5h13c.3 0 .5.2.5.5V13h-1V5H6v14h7v1z"/><path class="abst1" d="M8 7h8v1H8z"/><path class="abst0" d="M0 0h24v24H0z"/><path class="abst1" d="M8 10h8v1H8zM8 13h7v1H8zM8 16h5v1H8zM15 17h5v1h-5z"/><path class="abst1" d="M17 15h1v5h-1z"/></svg><svg id="icon-add-to-list-done" viewBox="0 0 24 24" width="24" height="24" y="60" xmlns="http://www.w3.org/2000/svg"><style>.acst0{fill:none}.acst1{fill:#000000}</style><path class="acst1" d="M13 20H5.5c-.3 0-.5-.2-.5-.5v-15c0-.3.2-.5.5-.5h13c.3 0 .5.2.5.5V13h-1V5H6v14h7v1z"/><path class="acst1" d="M8 7h8v1H8z"/><path class="acst0" d="M0 0h24v24H0z"/><path class="acst1" d="M8 10h8v1H8zM8 13h7v1H8zM8 16h5v1H8zM17.5 20.5c-.1 0-.2 0-.3-.1l-3-2 .6-.8 2.6 1.7 2.7-4.6.9.5-3 5c-.1.1-.2.2-.3.2-.1.1-.2.1-.2.1z"/></svg><svg width="96" height="96" viewBox="0 0 96 96" id="icon-ambulance" y="84" xmlns="http://www.w3.org/2000/svg"><g transform="translate(10 24)" stroke="#000000" stroke-width="2" fill="none" fill-rule="evenodd"><path d="M41.4 10.2c0-1.8-1.5-3.3-3.3-3.3-1.8 0-3.3 1.5-3.3 3.3h6.6zM6 43.2H0l2.4-23.1c0-.6 1.2-4.5 3.3-8.1h46.2l8.4 13.8 8.7 8.1s1.8 1.5 1.8 4.8c0 0 .9 0 .9 1.2V42s.3 1.2-.9 1.2h-4.5M54.6 43.2H17.7"/><circle cx="11.7" cy="42" r="6"/><circle cx="60.3" cy="42" r="6"/><path d="M60 25.5H44.4v-9.9M21.3 19.2v8.4M17.1 23.4h8.4"/><circle cx="21.3" cy="23.4" r="6.6"/><path d="M38.4 5.4V2.1M38.4 5.4V2.1M38.4 5.4V2.1M41.4 6.6l2.4-2.4M35.1 6.6l-2.4-2.4"/></g></svg><svg viewBox="345.1 400.4 41 41" width="41" height="41" id="icon-arrow-box" y="180" xmlns="http://www.w3.org/2000/svg"><g fill="#000000" stroke="#000000" stroke-width=".55" stroke-miterlimit="10"><path d="M359.3 420.6h12.1v.9h-12.1z"/><path d="M367 426.1l-.5-.5 4.6-4.6-4.6-4.6.5-.5 5 5c.2.2.2.3 0 .5l-5 4.7z"/></g><path fill="#000000" stroke="#000000" stroke-width=".7" stroke-miterlimit="10" d="M385.3 401.3v39.1H346v-39.1h39.3m.8-.9h-41v41h41v-41z"/></svg><svg viewBox="279.6 402.9 36 36" width="36" height="36" id="icon-arrow-circle" y="221" xmlns="http://www.w3.org/2000/svg"><path fill="#000000" d="M297.6 406.6c7.7 0 14 6.3 14 14s-6.3 14-14 14-14-6.3-14-14 6.3-14 14-14m0-1c-8.3 0-15 6.7-15 15s6.7 15 15 15 15-6.7 15-15-6.7-15-15-15z"/><path fill="none" d="M279.6 403h36v36h-36z"/><path fill="none" d="M283.7 407h27.9v27.9h-27.9z"/><path fill="#000000" d="M291 420.1h12.4v.9H291z"/><path fill="#000000" d="M298.6 425.9l-.6-.6 4.8-4.8-4.8-4.8.6-.6 5.1 5.1c.2.2.2.4 0 .6l-5.1 5.1z"/></svg><svg id="icon-arrow-right" viewBox="0 0 24 24" width="24" height="24" y="257" xmlns="http://www.w3.org/2000/svg"><style>.agst0{fill:none}.agst1{fill:#000000}</style><path class="agst1" d="M4 12h14.5v1H4z"/><path class="agst1" d="M12.9 18.9l-.7-.7 5.6-5.6L12.2 7l.7-.7 6 6c.2.2.2.5 0 .7l-6 5.9z"/><path class="agst0" d="M0 0h24v24H0z"/></svg><svg width="36" height="36" viewBox="0 0 36 36" id="icon-beaker" y="281" xmlns="http://www.w3.org/2000/svg"><path d="M14.62 6a.28.28 0 0 0-.23.28v8.29L8.05 26a3.82 3.82 0 0 0-.59 1.81 2 2 0 0 0 .79 1.64 3.2 3.2 0 0 0 2 .59h13.3a.27.27 0 0 0 .2-.08.28.28 0 0 0 0-.4.27.27 0 0 0-.2-.08H10.24A2.68 2.68 0 0 1 8.59 29 1.44 1.44 0 0 1 8 27.77a3.39 3.39 0 0 1 .52-1.54l6.29-11.29h2.62a.27.27 0 0 0 .2-.08.28.28 0 0 0 0-.4.27.27 0 0 0-.2-.08h-2.5v-2.24h1.94a.27.27 0 0 0 .2-.08.28.28 0 0 0 0-.4.27.27 0 0 0-.2-.08h-1.92V9.35h2.5a.27.27 0 0 0 .2-.08.28.28 0 0 0 0-.4.27.27 0 0 0-.2-.08h-2.5V6.56h6.1v8.09a.29.29 0 0 0 0 .13l6.38 11.44a3.39 3.39 0 0 1 .57 1.55 1.44 1.44 0 0 1-.57 1.2 2.68 2.68 0 0 1-1.65.47.27.27 0 0 0-.2.08.28.28 0 0 0 0 .4.27.27 0 0 0 .2.08 3.2 3.2 0 0 0 2-.59 2 2 0 0 0 .79-1.64 3.82 3.82 0 0 0-.62-1.77L21.6 14.57V6.28a.28.28 0 0 0-.27-.28h-6.71z" fill="#000000" stroke="#000000" stroke-width=".29"/></svg><svg viewBox="0 0 36 36" width="36" height="36" id="icon-blog" y="317" xmlns="http://www.w3.org/2000/svg"><path fill="#FFF" fill-opacity="0" d="M6 6h24v24H6z"/><path fill="#000000" d="M10 12h16v12.7H10V12zm4 3.9v1h8v-1h-8zm0 3.9v1h5v-1h-5z"/></svg><svg id="icon-calendar" viewBox="0 0 36 36" width="36" height="36" y="353" xmlns="http://www.w3.org/2000/svg"><style>.ajst0{fill:none}.ajst1{fill:#000000}</style><path class="ajst0" d="M0 0h36v36H0z"/><path class="ajst1" d="M29 10v19H7V10h22m0-1H7c-.6 0-1 .4-1 1v19c0 .6.4 1 1 1h22c.6 0 1-.4 1-1V10c0-.6-.4-1-1-1z"/><path class="ajst1" d="M7 13h22v1H7zM11 6h1v3h-1zM24 6h1v3h-1zM11 17v1h-1v-1h1m1-1H9v3h3v-3zM16 17v1h-1v-1h1m1-1h-3v3h3v-3zM26 17v1h-1v-1h1m1-1h-3v3h3v-3zM21 17v1h-1v-1h1m1-1h-3v3h3v-3zM11 21v1h-1v-1h1m1-1H9v3h3v-3zM16 21v1h-1v-1h1m1-1h-3v3h3v-3zM26 21v1h-1v-1h1m1-1h-3v3h3v-3zM21 21v1h-1v-1h1m1-1h-3v3h3v-3zM11 25v1h-1v-1h1m1-1H9v3h3v-3zM16 25v1h-1v-1h1m1-1h-3v3h3v-3zM21 25v1h-1v-1h1m1-1h-3v3h3v-3z"/></svg><svg id="icon-check-mark" viewBox="0 0 36 36" width="36" height="36" y="389" xmlns="http://www.w3.org/2000/svg"><style>.akst0{fill:#000000;stroke:#000000;stroke-width:4}</style><path class="akst0" d="M10.6 17.2l-.6.6 5.7 5.7L26 13.1l-.6-.6-9.7 9.8-5.1-5.1z"/></svg><svg viewBox="0 0 24 24" width="24" height="24" id="icon-checkbox-off" y="425" xmlns="http://www.w3.org/2000/svg"><path d="M19.994.964c1.705 0 3.005 1.3 3.005 3.005v16.025c0 1.705-1.3 3.005-3.005 3.005H3.968c-1.705 0-3.005-1.3-3.005-3.005V3.968c0-1.705 1.3-3.005 3.005-3.005h16.026m0-1.001H3.968A4.018 4.018 0 0 0-.038 3.968v16.025a4.018 4.018 0 0 0 4.006 4.006h16.025A4.017 4.017 0 0 0 24 19.994V3.968a4.018 4.018 0 0 0-4.006-4.006z" fill="#000000"/></svg><svg viewBox="285.6 403.9 24 31.7" width="24" height="31.7" id="icon-checkbox-on" y="449" xmlns="http://www.w3.org/2000/svg"><path fill="#000000" d="M290 404.4h15.3c2.1 0 3.8 1.7 3.8 3.8v15.3c0 2.1-1.7 3.8-3.8 3.8H290c-2.1 0-3.8-1.7-3.8-3.8v-15.3c0-2.1 1.7-3.8 3.8-3.8z"/><path fill="#FFF" d="M297.1 421.2c-.1 0-.3 0-.4-.1l-5.2-3.4.8-1.1 4.6 3.1 5.5-8.4 1.1.8-5.9 9c-.1 0-.2.1-.5.1.1 0 .1 0 0 0z"/></svg><svg width="36" height="36" viewBox="0 0 36 36" id="icon-checklist" y="481" xmlns="http://www.w3.org/2000/svg"><path d="M21.1 31.16H6.65a.67.67 0 0 1-.65-.67V5.37a.67.67 0 0 1 .67-.67h18.81a.67.67 0 0 1 .67.67V19.5" fill="none" stroke="#000000" stroke-linecap="round" stroke-linejoin="round" stroke-width=".36"/><rect x="8.91" y="7.78" width="2.91" height="2.91" rx=".32" ry=".32" fill="none" stroke="#000000" stroke-linecap="round" stroke-linejoin="round" stroke-width=".36"/><path fill="none" stroke="#000000" stroke-linecap="round" stroke-linejoin="round" stroke-width=".36" d="M13.07 9.06h9.59"/><rect x="8.91" y="13.41" width="2.91" height="2.91" rx=".32" ry=".32" fill="none" stroke="#000000" stroke-linecap="round" stroke-linejoin="round" stroke-width=".36"/><path fill="none" stroke="#000000" stroke-linecap="round" stroke-linejoin="round" stroke-width=".36" d="M13.07 14.69h9.59"/><rect x="8.91" y="19.03" width="2.91" height="2.91" rx=".32" ry=".32" fill="none" stroke="#000000" stroke-linecap="round" stroke-linejoin="round" stroke-width=".36"/><path fill="none" stroke="#000000" stroke-linecap="round" stroke-linejoin="round" stroke-width=".36" d="M13.07 20.31h7.9"/><rect x="8.91" y="24.65" width="2.91" height="2.91" rx=".32" ry=".32" fill="none" stroke="#000000" stroke-linecap="round" stroke-linejoin="round" stroke-width=".36"/><path fill="none" stroke="#000000" stroke-linecap="round" stroke-linejoin="round" stroke-width=".36" d="M13.07 25.93h4.98"/><circle cx="24.33" cy="25.64" r="5.65" fill="none" stroke="#000000" stroke-linecap="round" stroke-linejoin="round" stroke-width=".36"/><path fill="none" stroke="#000000" stroke-linecap="round" stroke-linejoin="round" stroke-width=".36" d="M21.23 25.01l2.62 2.62 4.19-4.2"/></svg><svg id="icon-chevron-right" viewBox="0 0 24 24" width="24" height="24" y="517" xmlns="http://www.w3.org/2000/svg"><style>.aost0{fill:none}.aost1{fill:#000000}</style><path class="aost1" d="M9.4 18.4l-.7-.7 5.6-5.6-5.7-5.7.7-.7 6 6c.2.2.2.5 0 .7l-5.9 6z"/><path class="aost0" d="M0 0h24v24H0z"/></svg><svg viewBox="279.6 402.9 36 36" width="36" height="36" id="icon-circle" y="541" xmlns="http://www.w3.org/2000/svg"><path fill="#000000" d="M297.6 406.6c7.7 0 14 6.3 14 14s-6.3 14-14 14-14-6.3-14-14 6.3-14 14-14m0-1c-8.3 0-15 6.7-15 15s6.7 15 15 15 15-6.7 15-15-6.7-15-15-15z"/><path fill="none" d="M279.6 403h36v36h-36z"/><path fill="none" d="M283.7 407h27.9v27.9h-27.9z"/></svg><svg width="24" height="24" viewBox="0 0 24 24" id="icon-clock" y="577" xmlns="http://www.w3.org/2000/svg"><g transform="translate(-6 -6)" fill="none" fill-rule="evenodd"><path d="M0 0h36v36H0z"/><circle stroke="#000000" cx="18" cy="18" r="11"/><path stroke="#000000" d="M18 13v6h6"/></g></svg><svg id="icon-clock-nine" viewBox="0 0 36 36" width="36" height="36" y="601" xmlns="http://www.w3.org/2000/svg"><style>.arst0{fill:none;stroke:#000000}</style><path class="arst0" d="M28 18c0 5.5-4.5 10-10 10S8 23.5 8 18 12.5 8 18 8s10 4.5 10 10z"/><path class="arst0" d="M18.4 10.6v7.8h-5.2"/></svg><svg width="69" height="69" viewBox="0 0 69 69" id="icon-consumer-android" y="637" xmlns="http://www.w3.org/2000/svg"><defs><path id="asa" d="M0 .314h70.828v69.393H0z"/><rect id="asc" width="10" height="35" rx="5"/><path id="ase" d="M0 .314h70.828v69.393H0z"/><rect id="asg" width="10" height="35" rx="5"/><path id="asi" d="M0 .314h70.828v69.393H0z"/><rect id="ask" y=".735" width="51" height="94.331" rx="25.5"/></defs><g transform="translate(-1 -2)" fill="none" fill-rule="evenodd"><path d="M0 0h72v72H0z"/><g transform="translate(0 1)"><mask id="asb" fill="#fff"><use xlink:href="#asa"/></mask><g mask="url(#asb)"><g transform="translate(1 31)"><mask id="asd" fill="#fff"><use xlink:href="#asc"/></mask><rect stroke="#000000" stroke-width="2" mask="url(#asd)" width="10" height="35" rx="5"/></g></g></g><g transform="translate(0 1)"><mask id="asf" fill="#fff"><use xlink:href="#ase"/></mask><g mask="url(#asf)"><g transform="translate(60 31)"><mask id="ash" fill="#fff"><use xlink:href="#asg"/></mask><rect stroke="#000000" stroke-width="2" mask="url(#ash)" width="10" height="35" rx="5"/></g></g></g><g transform="translate(0 1)"><mask id="asj" fill="#fff"><use xlink:href="#asi"/></mask><g mask="url(#asj)"><g transform="translate(10 5)"><mask id="asl" fill="#fff"><use xlink:href="#ask"/></mask><rect stroke="#000000" stroke-width="2" mask="url(#asl)" y=".735" width="51" height="94.331" rx="25.5"/></g></g></g><circle stroke="#000000" cx="26.169" cy="20.169" r="2.169"/><circle stroke="#000000" cx="45.169" cy="20.169" r="2.169"/><path fill="#000000" d="M11 31h50v1H11z"/><g stroke="#000000"><path d="M25.831 8.858l-4.879-6.46M45.89 9.329l5.023-6.931"/></g></g></svg><svg width="40" height="72" viewBox="0 0 40 72" id="icon-consumer-battery" y="706" xmlns="http://www.w3.org/2000/svg"><defs><path id="ata" d="M0 0h72v72H0z"/><mask id="atb" x="0" y="0" width="72" height="72" fill="#fff"><use xlink:href="#ata"/></mask></defs><g stroke="#000000" fill="none" fill-rule="evenodd"><path d="M14 7.2H.8v63.6h38.4V7.2H26v-6H14v6z" stroke-linecap="square"/><path d="M22 39.314h5.2L16.8 58.8V41.086h-5.2L22 21.6v17.714z" stroke-linejoin="round"/></g></svg><svg width="49" height="71" viewBox="0 0 49 71" id="icon-consumer-bulb" y="778" xmlns="http://www.w3.org/2000/svg"><defs><path id="aua" d="M0 0h72v72H0z"/><mask id="auc" x="0" y="0" width="72" height="72" fill="#fff"><use xlink:href="#aua"/></mask><path id="aub" d="M28.8 69.6h17v1h-17z"/><mask id="aud" x="0" y="0" width="17" height="1" fill="#fff"><use xlink:href="#aub"/></mask></defs><g transform="translate(-12)" stroke="#000000" fill="none" fill-rule="evenodd"><path d="M47.185 45.92A23.66 23.66 0 0 0 60 24.835C60 11.782 49.523 1.2 36.6 1.2c-12.923 0-23.4 10.582-23.4 23.635 0 9.687 5.77 18.013 14.028 21.663L29.18 62.4h15.981l2.024-16.48z" stroke-linecap="square"/><use mask="url(#aud)" stroke-width="2" xlink:href="#aub"/><path d="M37.2 61.807V37.8" stroke-linecap="square"/><path stroke-linecap="round" stroke-linejoin="round" d="M48.188 26.541L37.341 37.388 26.4 26.448"/></g></svg><svg width="72" height="72" viewBox="0 0 72 72" id="icon-consumer-camera" y="849" xmlns="http://www.w3.org/2000/svg"><defs><path id="ava" d="M0 0h72v72H0z"/><mask id="avb" x="0" y="0" width="72" height="72" fill="#fff"><use xlink:href="#ava"/></mask></defs><g stroke="#000000" fill="none" fill-rule="evenodd"><circle cx="36" cy="36" r="9.6"/><ellipse cx="36" cy="36" rx="34.8" ry="34.8"/><ellipse cx="48" cy="14.4" rx="3.6" ry="3.6"/><circle cx="36" cy="36" r="15.6"/></g></svg><svg width="72" height="71" viewBox="0 0 72 71" id="icon-consumer-circuit" y="921" xmlns="http://www.w3.org/2000/svg"><defs><path id="awa" d="M0 0h72v72H0z"/><mask id="awb" x="0" y="0" width="72" height="72" fill="#fff"><use xlink:href="#awa"/></mask></defs><g stroke="#000000" fill="none" fill-rule="evenodd"><ellipse cx="48" cy="16.8" rx="3.6" ry="3.6"/><circle cx="4.8" cy="31.2" r="3.6"/><ellipse cx="67.2" cy="31.2" rx="3.6" ry="3.6"/><path d="M1.2 1.2H36v69.6"/><path d="M8.4 31.2h19.2v39.6M63.6 31.2H44.4v39.6"/><path d="M52.6 16.8h17.9" stroke-linecap="square"/></g></svg><svg width="60" height="71" viewBox="0 0 60 71" id="icon-consumer-document" y="992" xmlns="http://www.w3.org/2000/svg"><defs><path id="axa" d="M0 0h72v72H0z"/><mask id="axe" x="0" y="0" width="72" height="72" fill="#fff"><use xlink:href="#axa"/></mask><path id="axb" d="M21 23h30v1H21z"/><mask id="axf" x="0" y="0" width="30" height="1" fill="#fff"><use xlink:href="#axb"/></mask><path id="axc" d="M21 36.5h30v1H21z"/><mask id="axg" x="0" y="0" width="30" height="1" fill="#fff"><use xlink:href="#axc"/></mask><path id="axd" d="M21 50h30v1H21z"/><mask id="axh" x="0" y="0" width="30" height="1" fill="#fff"><use xlink:href="#axd"/></mask></defs><g transform="translate(-6)" stroke="#000000" fill="none" fill-rule="evenodd"><path stroke-linecap="round" stroke-linejoin="round" d="M27.373 1h17.854L46.6 7H26z"/><path stroke-linejoin="round" d="M26.5 4H7v66h58V4H46"/><use mask="url(#axf)" stroke-width="2" xlink:href="#axb"/><use mask="url(#axg)" stroke-width="2" xlink:href="#axc"/><use mask="url(#axh)" stroke-width="2" xlink:href="#axd"/></g></svg><svg width="71" height="70" viewBox="0 0 71 70" id="icon-consumer-front-back-camera" y="1063" xmlns="http://www.w3.org/2000/svg"><defs><path d="M.06 2V0h36v72h-36v-2.092h.935v-4H.06V5h.998V2H.06z" id="ayc"/><rect id="aya" width="36.674" height="70" rx="4"/><mask id="aye" x="0" y="0" width="36.674" height="70" fill="#fff"><use xlink:href="#aya"/></mask><rect id="ayb" x=".698" width="36.674" height="70" rx="4"/><mask id="ayf" x="0" y="0" width="36.674" height="70" fill="#fff"><use xlink:href="#ayb"/></mask></defs><g fill="none" fill-rule="evenodd"><g transform="translate(35 -1)"><mask id="ayd" fill="#fff"><use xlink:href="#ayc"/></mask><g mask="url(#ayd)" stroke="#000000"><g transform="translate(-1 1)"><use mask="url(#aye)" stroke-width="2" xlink:href="#aya"/><circle cx="18" cy="11" r="1"/><circle cx="18" cy="11" r="3"/></g></g></g><g stroke="#000000"><circle cx="27" cy="4" r="1"/><path d="M4 8h30v54H4z"/><use mask="url(#ayf)" stroke-width="2" xlink:href="#ayb"/></g><path d="M0-1h72v72H0z"/></g></svg><svg width="56" height="70" viewBox="0 0 56 70" id="icon-consumer-mobile-screen" y="1133" xmlns="http://www.w3.org/2000/svg"><defs><path id="aza" d="M0 0h72v72H0z"/><mask id="azd" x="0" y="0" width="72" height="72" fill="#fff"><use xlink:href="#aza"/></mask><path id="aze" d="M5 1h62v70H5z"/><path id="azb" d="M13 13h46v53H13z"/><mask id="azg" x="0" y="0" width="46" height="53" fill="#fff"><use xlink:href="#azb"/></mask><rect id="azc" x="8" y="1" width="56" height="79" rx="8"/><mask id="azh" x="0" y="0" width="56" height="79" fill="#fff"><use xlink:href="#azc"/></mask></defs><g transform="translate(-8 -1)" fill="none" fill-rule="evenodd"><mask id="azf" fill="#fff"><use xlink:href="#aze"/></mask><g mask="url(#azf)" stroke-width="2" stroke="#000000"><use mask="url(#azg)" xlink:href="#azb"/></g><g mask="url(#azf)" stroke-width="2" stroke="#000000"><use mask="url(#azh)" xlink:href="#azc"/></g><path d="M31 8h9.5" stroke="#000000" stroke-linecap="round"/></g></svg><svg width="63" height="71" viewBox="0 0 63 71" id="icon-consumer-person-plus" y="1203" xmlns="http://www.w3.org/2000/svg"><defs><path id="baa" d="M0 0h72v72H0z"/><mask id="baf" x="0" y="0" width="72" height="72" fill="#fff"><use xlink:href="#baa"/></mask><path d="M60 35v-5H6v42.2h54V50h7V35h-7z" id="bag"/><path d="M63.6 46.737c0-6.593-12.088-11.937-27-11.937s-27 5.344-27 11.937V69.8h54V46.737z" id="bab"/><mask id="bai" x="-1" y="-1" width="56" height="37"><path fill="#fff" d="M8.6 33.8h56v37h-56z"/><use xlink:href="#bab"/></mask><circle id="bac" cx="59.4" cy="59.4" r="11.4"/><mask id="baj" x="0" y="0" width="22.8" height="22.8" fill="#fff"><use xlink:href="#bac"/></mask><path id="bad" d="M52.8 58.8h13v1h-13z"/><mask id="bak" x="0" y="0" width="13" height="1" fill="#fff"><use xlink:href="#bad"/></mask><path id="bae" d="M59.772 65.8h-.992v-13h.992z"/><mask id="bal" x="0" y="0" width="1" height="13" fill="#fff"><use xlink:href="#bae"/></mask></defs><g transform="translate(-8)" fill="none" fill-rule="evenodd"><mask id="bah" fill="#fff"><use xlink:href="#bag"/></mask><g mask="url(#bah)" stroke-width="2" stroke="#000000" stroke-linejoin="round"><use mask="url(#bai)" xlink:href="#bab"/></g><ellipse stroke="#000000" cx="35.9" cy="14.9" rx="13.9" ry="13.9"/><use stroke="#000000" mask="url(#baj)" stroke-width="2" xlink:href="#bac"/><use stroke="#000000" mask="url(#bak)" stroke-width="2" xlink:href="#bad"/><use stroke="#000000" mask="url(#bal)" stroke-width="2" transform="matrix(-1 0 0 1 118.56 0)" xlink:href="#bae"/></g></svg><svg width="52" height="71" viewBox="0 0 52 71" id="icon-consumer-seal" y="1274" xmlns="http://www.w3.org/2000/svg"><defs><path id="bba" d="M0 0h72v72H0z"/><mask id="bbe" x="0" y="0" width="72" height="72" fill="#fff"><use xlink:href="#bba"/></mask><path d="M43.594 52.031v17.566l-7.901-4.334L28 69.597V52a25.55 25.55 0 0 0 7.846 1.226c2.703 0 5.306-.42 7.748-1.195z" id="bbb"/><mask id="bbf" x="-1" y="-1" width="17.594" height="19.597"><path fill="#fff" d="M27 51h17.594v19.597H27z"/><use xlink:href="#bbb"/></mask><path d="M36 52c13.807 0 25-11.193 25-25S49.807 2 36 2 11 13.193 11 27s11.193 25 25 25z" id="bbc"/><mask id="bbg" x="-1" y="-1" width="52" height="52"><path fill="#fff" d="M10 1h52v52H10z"/><use xlink:href="#bbc"/></mask><ellipse id="bbd" cx="36" cy="27" rx="18" ry="18"/><mask id="bbh" x="-1" y="-1" width="38" height="38"><path fill="#fff" d="M17 8h38v38H17z"/><use xlink:href="#bbd"/></mask></defs><g transform="translate(-10 -1)" stroke="#000000" fill="none" fill-rule="evenodd"><use mask="url(#bbf)" stroke-width="2" xlink:href="#bbb"/><use mask="url(#bbg)" stroke-width="2" xlink:href="#bbc"/><use mask="url(#bbh)" stroke-width="2" xlink:href="#bbd"/><path d="M28 26.75L34.5 33l10-11"/></g></svg><svg width="70" height="70" viewBox="0 0 70 70" id="icon-consumer-snapdragon" y="1345" xmlns="http://www.w3.org/2000/svg"><g transform="translate(-1 -1)" fill="none" fill-rule="evenodd"><path d="M0 0h72v72H0z"/><rect stroke="#000000" x="2" y="2" width="68" height="68" rx="4"/><rect x="1.867" y="1.867" width="52.267" height="52.267" rx="2" transform="translate(8 8)" stroke="#000000"/><path stroke="#000000" d="M24 24h24v24H24z"/></g></svg><svg width="38" height="72" viewBox="0 0 38 72" id="icon-consumer-support" y="1415" xmlns="http://www.w3.org/2000/svg"><defs><rect id="bda" width="8" height="3" rx="1.5"/></defs><g transform="translate(-17)" fill="none" fill-rule="evenodd"><path d="M0 0h72v72H0z"/><path stroke="#000000" d="M20 9h32v54H20z"/><g transform="translate(32 65)"><mask id="bdb" fill="#fff"><use xlink:href="#bda"/></mask><g mask="url(#bdb)" stroke="#000000" stroke-width="2"><rect width="8" height="3" rx="1.5"/></g></g><rect stroke="#000000" x="17.698" y="1" width="36.674" height="70" rx="4"/><circle fill="#000000" cx="41.5" cy="5.5" r=".5"/><path d="M38.5 5.5H33" stroke="#000000"/></g></svg><svg width="54" height="69" viewBox="0 0 54 69" id="icon-consumer-user-guide" y="1487" xmlns="http://www.w3.org/2000/svg"><defs><path id="bea" d="M0 0h54v64H0z"/><path id="bec" d="M1 1h52v62H1z"/><path id="bed" d="M0 0h54v7H0z"/><path id="bef" d="M1 1h52v5H1z"/><path id="beg" d="M0 0h52v1H0z"/></defs><g transform="translate(-9)" fill="none" fill-rule="evenodd"><path d="M0 0h72v72H0z"/><g transform="translate(9)"><mask id="beb" fill="#fff"><use xlink:href="#bea"/></mask><g mask="url(#beb)" stroke="#000000"><path d="M1 1h52v62H1z"/></g></g><g transform="translate(9 62)"><mask id="bee" fill="#fff"><use xlink:href="#bed"/></mask><g mask="url(#bee)" stroke="#000000"><path d="M1 1h52v5H1z"/></g></g><g transform="translate(10 65)"><mask id="beh" fill="#fff"><use xlink:href="#beg"/></mask><g mask="url(#beh)" stroke="#000000"><path d="M0 0h52v1H0z"/></g></g><rect stroke="#000000" x="18" y="10" width="36" height="23" rx="1"/></g></svg><svg viewBox="0 0 72 72" width="72" height="72" id="icon-consumer-wechat" y="1556" xmlns="http://www.w3.org/2000/svg"><path d="M13.765 47.243a.502.502 0 0 1-.5-.5v-8.505C5.821 36.035.655 29.143.655 21.345c0-9.713 7.905-17.616 17.622-17.616h19.404c9.717 0 17.622 7.903 17.622 17.616s-7.905 17.616-17.622 17.616H22.006l-7.883 8.13a.499.499 0 0 1-.358.152zm4.512-42.514c-9.166 0-16.622 7.454-16.622 16.616 0 7.477 5.034 14.07 12.241 16.033a.5.5 0 0 1 .369.482v7.648l7.171-7.396a.497.497 0 0 1 .359-.152h15.887c9.165 0 16.622-7.454 16.622-16.616S46.847 4.729 37.682 4.729H18.277z" fill="#000000"/><defs><path id="bfa" d="M56.829 42.694H21.4V68H71V25.486H56.829z"/></defs><clipPath id="bfb"><use xlink:href="#bfa" overflow="visible"/></clipPath><g clip-path="url(#bfb)"><defs><path id="bfc" d="M24.437 29.535H71v35.429H24.437z"/></defs><clipPath id="bfd"><use xlink:href="#bfc" overflow="visible"/></clipPath><g clip-path="url(#bfd)"><defs><path id="bfe" d="M21.4 25.486H71v39.477H21.4z"/></defs><clipPath id="bff"><use xlink:href="#bfe" overflow="visible"/></clipPath><g clip-path="url(#bff)"><path d="M57.378 65.463a.499.499 0 0 1-.383-.179l-7.199-8.577H38.271c-7.346 0-13.322-5.979-13.322-13.33 0-7.35 5.977-13.33 13.322-13.33h18.894c7.346 0 13.322 5.98 13.322 13.33 0 7.066-5.612 12.938-12.609 13.312v8.274a.502.502 0 0 1-.5.5zM38.271 31.047c-6.794 0-12.322 5.531-12.322 12.33s5.528 12.33 12.322 12.33h11.758c.147 0 .288.065.383.179l6.466 7.704v-7.384a.5.5 0 0 1 .492-.5c6.682-.109 12.117-5.64 12.117-12.329 0-6.799-5.527-12.33-12.322-12.33H38.271z" fill="#000000"/></g></g></g><defs><circle id="bfg" cx="17.351" cy="21.437" r="2.024"/></defs><clipPath id="bfh"><use xlink:href="#bfg" overflow="visible"/></clipPath><g clip-path="url(#bfh)"><path d="M17.351 24.461a3.028 3.028 0 0 1-3.024-3.024c0-1.668 1.357-3.025 3.024-3.025s3.024 1.357 3.024 3.025a3.027 3.027 0 0 1-3.024 3.024zm0-4.049a1.026 1.026 0 0 0 0 2.049 1.025 1.025 0 0 0 0-2.049z" fill="#000000"/></g><g><defs><circle id="bfi" cx="28.486" cy="21.437" r="2.024"/></defs><clipPath id="bfj"><use xlink:href="#bfi" overflow="visible"/></clipPath><g clip-path="url(#bfj)"><path d="M28.486 24.461a3.028 3.028 0 0 1-3.024-3.024c0-1.668 1.357-3.025 3.024-3.025s3.024 1.357 3.024 3.025a3.028 3.028 0 0 1-3.024 3.024zm0-4.049a1.026 1.026 0 0 0 0 2.049 1.025 1.025 0 0 0 0-2.049z" fill="#000000"/></g></g><g><defs><circle id="bfk" cx="39.62" cy="21.437" r="2.024"/></defs><clipPath id="bfl"><use xlink:href="#bfk" overflow="visible"/></clipPath><g clip-path="url(#bfl)"><path d="M39.62 24.461a3.027 3.027 0 0 1-3.024-3.024c0-1.668 1.356-3.025 3.024-3.025s3.024 1.357 3.024 3.025a3.027 3.027 0 0 1-3.024 3.024zm0-4.049a1.025 1.025 0 0 0 0 2.049 1.025 1.025 0 0 0 0-2.049z" fill="#000000"/></g></g><path fill="none" d="M0 0h72v72H0z"/></svg><svg width="48" height="70" viewBox="0 0 48 70" id="icon-consumer-wrench" y="1628" xmlns="http://www.w3.org/2000/svg"><defs><path id="bga" d="M0 0h72v72H0z"/><mask id="bgc" x="0" y="0" width="72" height="72" fill="#fff"><use xlink:href="#bga"/></mask><path d="M28.941 23.27V1.2C19.131 4.1 12 12.884 12 23.27c0 9.467 5.924 17.603 14.4 21.166V70.8h19.482V44.315C54.208 40.692 60 32.632 60 23.27 60 12.884 52.869 4.099 43.059 1.2v22.07L36 25.988l-7.059-2.716z" id="bgb"/><mask id="bgd" x="0" y="0" width="48" height="69.6" fill="#fff"><use xlink:href="#bgb"/></mask></defs><g transform="translate(-12 -1)" stroke="#000000" fill="none" fill-rule="evenodd"><use mask="url(#bgd)" stroke-width="2" xlink:href="#bgb"/><ellipse cx="36" cy="58.8" rx="3.6" ry="3.6"/></g></svg><svg id="icon-copy-to-clipboard" viewBox="0 0 24 24" width="24" height="24" y="1698" xmlns="http://www.w3.org/2000/svg"><style>.bhst0{fill:none}.bhst1{fill:#000000}</style><path class="bhst1" d="M18.5 20h-13c-.3 0-.5-.2-.5-.5v-15c0-.3.2-.5.5-.5H9v1H6v14h12V5h-3V4h3.5c.3 0 .5.2.5.5v15c0 .3-.2.5-.5.5z"/><path class="bhst1" d="M8 12h7v1H8z"/><path class="bhst1" d="M12.4 15.9l-.7-.7 2.6-2.6-2.6-2.6.7-.7 3 3c.2.2.2.5 0 .7l-3 2.9z"/><path class="bhst0" d="M0 0h24v24H0z"/><path class="bhst1" d="M15.5 6h-7c-.2 0-.3-.1-.4-.2-.1-.1-.1-.3-.1-.5l1-3c.1-.2.3-.3.5-.3h5c.2 0 .4.1.5.3l1 3c.1.2 0 .3-.1.5-.1.1-.2.2-.4.2zM9.2 5h5.6l-.7-2H9.9l-.7 2z"/></svg><svg id="icon-copy-to-clipboard-done" viewBox="0 0 24 24" width="24" height="24" y="1722" xmlns="http://www.w3.org/2000/svg"><style>.bist0{fill:none}.bist1{fill:#000000}</style><path class="bist1" d="M18.5 20h-13c-.3 0-.5-.2-.5-.5v-15c0-.3.2-.5.5-.5H9v1H6v14h12V5h-3V4h3.5c.3 0 .5.2.5.5v15c0 .3-.2.5-.5.5z"/><path class="bist1" d="M11.5 15.5c-.1 0-.3-.1-.4-.1l-3-3 .7-.7 2.6 2.6 3.7-5.5.8.6-4 6c-.1 0-.2.1-.4.1z"/><path class="bist0" d="M0 0h24v24H0z"/><path class="bist1" d="M15.5 6h-7c-.2 0-.3-.1-.4-.2-.1-.1-.1-.3-.1-.5l1-3c.1-.2.3-.3.5-.3h5c.2 0 .4.1.5.3l1 3c.1.2 0 .3-.1.5-.1.1-.2.2-.4.2zM9.2 5h5.6l-.7-2H9.9l-.7 2z"/></svg><svg id="icon-distance" viewBox="0 0 36 36" width="36" height="36" y="1746" xmlns="http://www.w3.org/2000/svg"><style>.bjst0{fill:none;stroke:#000000;stroke-linecap:round;stroke-linejoin:round}</style><path class="bjst0" d="M18.1 8.5h9.4v9.4m-9.6 9.6H8.5v-9.4m19-9.6l-19 19"/></svg><svg width="36" height="36" viewBox="0 0 36 36" id="icon-dollar-bills" y="1782" xmlns="http://www.w3.org/2000/svg"><path fill="none" stroke="#000000" stroke-width=".42" d="M8.23 21.63H30v-9.49H8.23v9.49z"/><path fill="#fff" stroke="#000000" stroke-width=".42" d="M7.12 22.74h21.76v-9.48H7.12v9.48z"/><path fill="#fff" stroke="#000000" stroke-width=".42" d="M6 23.86h21.77v-9.49H6v9.49z"/><path d="M20.79 19.4a3.63 3.63 0 1 0-3.63 3.6 3.63 3.63 0 0 0 3.63-3.6z" fill="none" stroke="#000000" stroke-width=".42"/><path d="M16 20.58a1.12 1.12 0 0 0 2.23 0c0-.58-.55-.9-1.12-1s-1.12-.47-1.12-1a1.12 1.12 0 0 1 2.23 0" fill="none" stroke="#000000" stroke-width=".42"/><path d="M17.16 22.19v-5.3" fill="none" stroke="#000000" stroke-width=".28"/></svg><svg width="36" height="36" viewBox="0 0 36 36" id="icon-dollar-sign" y="1818" xmlns="http://www.w3.org/2000/svg"><path d="M30 18a12 12 0 1 0-12 12 12 12 0 0 0 12-12z" fill="none" stroke="#000000" stroke-width=".88"/><path d="M14.78 21.37a3.22 3.22 0 1 0 6.44 0c0-1.86-1.58-2.89-3.22-3.37s-3.22-1.51-3.22-3.37a3.22 3.22 0 1 1 6.44 0M18.29 27.66V9.51" fill="none" stroke="#000000" stroke-width=".88"/></svg><svg id="icon-download" viewBox="0 0 24 24" width="24" height="24" y="1854" xmlns="http://www.w3.org/2000/svg"><style>.bmst0{fill:none}.bmst1{fill:#000000}</style><path class="bmst1" d="M18.5 19h-13c-.3 0-.5-.2-.5-.5V16h1v2h12v-2h1v2.5c0 .3-.2.5-.5.5zM11.5 5h1v10h-1z"/><path class="bmst1" d="M12 15.5c-.1 0-.3 0-.4-.1l-4-4 .7-.7 3.6 3.6 3.6-3.6.7.7-4 4c.1.1-.1.1-.2.1z"/><path class="bmst0" d="M0 0h24v24H0z"/></svg><svg id="icon-download2" viewBox="0 0 36 36" width="36" height="36" y="1878" xmlns="http://www.w3.org/2000/svg"><style>.bnst0{fill:none}.bnst1{fill:#000000}</style><path class="bnst1" d="M28.5 28h-21c-.3 0-.5-.2-.5-.5V24h1v3h20v-3h1v3.5c0 .3-.2.5-.5.5zM17.5 7.5h1V22h-1z"/><path class="bnst1" d="M18 22.5c-.1 0-.3 0-.4-.1l-6-6 .7-.7 5.6 5.6 5.6-5.6.7.7-6 6c.1.1-.1.1-.2.1z"/><path class="bnst0" d="M0 0h36v36H0z"/></svg><svg width="16" height="4" viewBox="0 0 16 4" id="icon-ellipses" y="1914" xmlns="http://www.w3.org/2000/svg"><g transform="translate(-4 -10)" fill="none" fill-rule="evenodd"><path d="M0 0h24v24H0z"/><circle fill="#000000" cx="5.657" cy="12" r="1.6"/><circle fill="#000000" cx="12" cy="12" r="1.6"/><circle fill="#000000" cx="18.343" cy="12" r="1.6"/></g></svg><svg id="icon-email" viewBox="0 0 36 36" width="36" height="36" y="1918" xmlns="http://www.w3.org/2000/svg"><style>.bpst0{fill:#fff;fill-opacity:0}.bpst1{fill:#000000}</style><g id="bpShare-items"><g id="bpnokia_email_24x24" transform="translate(-3 -6)"><path id="bpRectangle-5-Copy-2" class="bpst0" d="M10 11.2h22v26H10z"/><g id="bpPage-1_1_" transform="translate(3 6)"><path id="bpCombined-Shape" class="bpst1" d="M19.7 19.1l8-7.4v14H8.2v-14l8 7.4c.5.4 1.1.6 1.7.6.7 0 1.3-.2 1.8-.6zm-.7-.7c-.6.5-1.4.5-2 0l-7.3-6.7h16.7L19 18.4z"/></g></g></g></svg><svg width="96" height="96" viewBox="0 0 96 96" id="icon-extinguisher" y="1954" xmlns="http://www.w3.org/2000/svg"><g stroke-width="2" stroke="#000000" fill="none" fill-rule="evenodd"><path d="M67.1 57.1l-9.3-21.6 4.2-2.1 12 20.1zM37.1 62.2c-3.9 0-7.2-3.3-7.2-7.2 0-1.5.6-3 1.5-4.2l5.7-7.2 5.7 7.2c.9 1.2 1.5 2.7 1.5 4.2 0 4.2-3.3 7.2-7.2 7.2z"/><path d="M37.1 62.2c-2.1 0-3.9-1.8-3.9-3.9 0-.9.3-1.8.9-2.4l3.3-3.9 3.3 3.9c.6.6.9 1.5.9 2.4-.6 2.1-2.4 3.9-4.5 3.9z"/><path d="M25.4 79V34.6c0-6.6 5.4-11.7 11.7-11.7 6.3 0 11.7 5.4 11.7 11.7V79H25.4z"/><path d="M33.8 23.2v-6.9c0-1.8 1.5-3.3 3.3-3.3 1.8 0 3.3 1.5 3.3 3.3v6.9M40.4 18.1s11.4-.9 19.5 16.8"/><path stroke-linejoin="bevel" d="M20.9 21.7l12.9-3.6-12.9-3.6"/></g></svg><svg viewBox="0 0 36 36" width="36" height="36" id="icon-facebook" y="2050" xmlns="http://www.w3.org/2000/svg"><path fill="#FFF" fill-opacity="0" d="M6 6h24v24H6z"/><path fill="#000000" d="M14.7 15.9h1.4v-1.4c0-.6 0-1.6.5-2.1.5-.6 1.1-1 2.2-1 1.8 0 2.6.3 2.6.3l-.4 2s-.6-.2-1.2-.2-1.1.2-1.1.8v1.6H21l-.1 2.1h-2.1v7.2h-2.7V18h-1.4v-2.1"/></svg><svg width="48" height="48" viewBox="0 0 48 48" id="icon-facebook-vt" y="2086" xmlns="http://www.w3.org/2000/svg"><g fill-rule="nonzero" fill="none"><path fill-opacity="0" fill="#FFF" d="M0 0h48v48H0z"/><path d="M17.4 19.8h2.8V17c0-1.2 0-3.2 1-4.2 1-1.2 2.2-2 4.4-2 3.6 0 5.2.6 5.2.6l-.8 4s-1.2-.4-2.4-.4-2.2.4-2.2 1.6v3.2H30l-.2 4.2h-4.2v14.4h-5.4V24h-2.8v-4.2" fill="#000000"/></g></svg><svg id="icon-filter" viewBox="0 0 36 36" width="36" height="36" y="2134" xmlns="http://www.w3.org/2000/svg"><style>.btst0{fill:none}.btst1{fill:#000000}.btst2{fill:#fff;stroke:#000000;stroke-width:2}</style><g id="btPage-1"><g id="bthomepage-1" transform="translate(-1381 -247)"><g id="btnokia.com_icon_menu_36-copy" transform="rotate(90 585.5 826.5)"><g id="btLayer_1_2_"><path id="btRectangle-path_4_" transform="rotate(90 24.077 13)" class="btst0" d="M12.1 1.9h24v22.2h-24z"/><path id="btRectangle-path_5_" transform="rotate(90 24.077 13)" class="btst0" d="M12.5 2.3h23.1v21.3H12.5z"/><path id="btRectangle-path_6_" transform="rotate(90 24.077 13)" class="btst0" d="M13 2.8h22.2v20.4H13z"/><path id="btRectangle-path_7_" transform="rotate(90 24.077 13)" class="btst0" d="M13.5 3.2h21.2v19.6H13.5z"/><path id="btRectangle-path_8_" transform="rotate(90 24.077 13)" class="btst0" d="M13.9 3.6h20.3v18.7H13.9z"/><path id="btRectangle-path_9_" transform="rotate(90 24.077 13)" class="btst0" d="M13.5 3.2h21.2v19.6H13.5z"/><path id="btRectangle-path_10_" transform="rotate(90 25.923 13)" class="btst0" d="M13.9 1.9h24v22.2h-24z"/><path id="btRectangle-path_1_" transform="rotate(90 24.077 4.692)" class="btst1" d="M23.2-6.4H25v22.2h-1.8z"/><path id="btRectangle-path_2_" transform="rotate(90 24.077 13)" class="btst1" d="M23.2 1.9H25v22.2h-1.8z"/><path id="btRectangle-path_3_" transform="rotate(90 24.077 21.308)" class="btst1" d="M23.2 10.2H25v22.2h-1.8z"/><circle id="btOval-4" class="btst2" cx="27.8" cy="21.3" r="2.8"/><circle id="btOval-4-Copy-2" class="btst2" cx="27.8" cy="4.7" r="2.8"/><circle id="btOval-4-Copy" class="btst2" cx="20.4" cy="13" r="2.8"/></g></g></g></g></svg><svg viewBox="0 0 36 36" width="36" height="36" id="icon-glassdoor" y="2170" xmlns="http://www.w3.org/2000/svg"><path fill="#FFF" fill-opacity="0" d="M6 6h24v24H6z"/><g fill="#000000"><path d="M21.3 10.2h-6.4c-1.2 0-2.2 1-2.2 2.2v8.7h2.2v-8.7h8.6c0-1.2-1-2.2-2.2-2.2"/><path d="M14.9 25.3h6.4c1.2 0 2.2-1 2.2-2.2v-8.7h-2.2V23h-8.6c0 1.3 1 2.3 2.2 2.3"/></g></svg><svg width="26" height="26" viewBox="0 0 26 26" id="icon-globe" y="2206" xmlns="http://www.w3.org/2000/svg"><g transform="translate(1 1)" stroke="#000000" stroke-width="2" fill="none" fill-rule="evenodd"><circle cx="12" cy="12" r="12"/><ellipse cx="12" cy="12" rx="5" ry="12"/><path d="M1 8h22.496M1 16h22.496"/></g></svg><svg width="21" height="13" viewBox="0 0 21 13" id="icon-googleplus" y="2232" xmlns="http://www.w3.org/2000/svg"><path d="M12.315 4.98c-1.36.02-2.73.01-4.1.01-.387 0-.782-.01-1.168.01-.077 0-.213.086-.213.145-.01.781-.01 1.573-.01 2.402h3.35c-.04.165-.068.28-.107.396-.511 1.525-2.084 2.278-3.773 1.998-2.094-.338-3.396-2.287-3.03-4.382.058-.299.145-.578.27-.84.695-1.524 2.403-2.45 4.102-2.084.607.136 1.119.435 1.572.82.608-.617 1.197-1.206 1.834-1.842-.049-.04-.107-.078-.155-.126C9.401.242 7.712-.22 5.802.097c-2.73.444-4.7 2.596-5.134 5.115a6.099 6.099 0 0 0 .329 3.32c1.042 2.672 3.724 4.294 6.6 3.985 1.399-.154 2.644-.665 3.628-1.708 1.438-1.534 1.814-3.397 1.582-5.433-.038-.338-.173-.395-.492-.395zm6.224.184h-.415v-.367c0-.521.01-1.052-.01-1.573 0-.087-.087-.241-.144-.241-.473-.02-.955-.01-1.457-.01v2.191h-2.2v.386l.057 1.187c.386.01.773.029 1.159.038h1.003v2.162h1.583V6.766h2.17V5.164H18.54z" fill="#000000" fill-rule="evenodd"/></svg><svg width="36" height="36" viewBox="0 0 36 36" id="icon-graph" y="2245" xmlns="http://www.w3.org/2000/svg"><path fill="none" stroke="#000000" stroke-width=".88" d="M10.68 30h4.1v-4.1h-4.1V30zM16.54 30h4.09v-9.95h-4.09V30zM22.39 30h4.1V14.2h-4.1V30zM23.56 6h2.93v3.51M9.51 22.39L26.49 6"/><path fill="none" stroke="#000000" stroke-width=".88" d="M10.68 30h4.1v-4.1h-4.1V30zM16.54 30h4.09v-9.95h-4.09V30zM22.39 30h4.1V14.2h-4.1V30zM23.56 6h2.93v3.51M9.51 22.39L26.49 6"/></svg><svg width="96" height="96" viewBox="0 0 96 96" id="icon-handcuffs" y="2281" xmlns="http://www.w3.org/2000/svg"><g transform="translate(15 17)" stroke="#000000" stroke-width="2" fill="none" fill-rule="evenodd"><circle cx="19.2" cy="43.2" r="12.3"/><ellipse transform="rotate(-68.211 20.214 15.553)" cx="20.214" cy="15.553" rx="5.4" ry="4.2"/><ellipse transform="rotate(-63.545 35.738 8.563)" cx="35.738" cy="8.563" rx="4.2" ry="5.4"/><ellipse transform="rotate(-30.001 27.26 10.133)" cx="27.259" cy="10.133" rx="5.4" ry="4.2"/><circle cx="19.2" cy="26.4" r="1.8"/><circle cx="40.2" cy="18" r="1.8"/><path d="M27 27.9l-1.5-6H12.9l-1.5 6c-5.7 2.7-9.6 8.7-9.6 15.3 0 9.6 7.8 17.1 17.1 17.1S36 52.5 36 43.2c.3-6.6-3.6-12.3-9-15.3z"/><path d="M38.7 50.1c3.6 1.5 7.5 1.8 11.4.6 9-2.7 14.1-12.3 11.4-21.3-2.1-6.3-7.2-10.8-13.5-12L45 12l-12 3.6.3 6c-1.2 1.2-2.4 2.7-3 4.2"/><path d="M33.9 28.8c1.5-3 4.2-5.4 7.5-6.6 6.6-2.1 13.5 1.8 15.3 8.1 1.8 6.3-1.8 13.5-8.1 15.3-3 .9-6.3.6-9-.6M27.6 52.5l.3 2.7 4.2-.6"/><path d="M55.5 40.5l1.2 2.7 3.9-2.1M19.2 21.9v-3M38.7 13.8l-.9-3"/></g></svg><svg width="36" height="36" viewBox="0 0 36 36" id="icon-handshake" y="2377" xmlns="http://www.w3.org/2000/svg"><path d="M25.33 19.64l-6.27 4.59c-.69.51-1.87 0-2.56-.42" fill="none" stroke="#000000" stroke-linecap="round" stroke-linejoin="round" stroke-width=".5"/><path d="M16.86 24l-4.19-3 4.12-2.92a.56.56 0 0 1 .59 0l1.79 1a2.28 2.28 0 0 0 1.53.3c1.19-.3 1.19-1.18.51-1.7l-3.34-2.33 1-.81a1.17 1.17 0 0 1 .77-.22h2.64M10.33 19.64l2.33 1.67" fill="none" stroke="#000000" stroke-linecap="round" stroke-linejoin="round" stroke-width=".5"/><path d="M18 15.3l-1-.72a1.34 1.34 0 0 0-1-.28h-2.67M14 21.64l2.67-2M15.33 22.64l2.67-2M16.67 23.64l2.67-2M26.06 20.64L22 13.58l3.94-2.28L30 18.36l-3.94 2.28z" fill="none" stroke="#000000" stroke-linecap="round" stroke-linejoin="round" stroke-width=".5"/><path fill="none" stroke="#000000" stroke-linecap="round" stroke-linejoin="round" stroke-width=".5" d="M9.94 20.3L14 13.25l-3.94-2.28L6 18.02l3.94 2.28z"/></svg><svg id="icon-heart" viewBox="0 0 36 36" width="36" height="36" y="2413" xmlns="http://www.w3.org/2000/svg"><style>.cast0{fill:none;stroke:#000000}</style><path class="cast0" d="M25.1 9.8c-.8-.5-1.8-.7-2.7-.7-1.7 0-3.3.7-4.3 2C16.4 9 13.4 8.4 11 9.8c-1.8 1-2.9 2.9-2.9 5 0 .6.1 1.2.3 1.7 1 4.4 9.7 10.4 9.7 10.4s8.7-6 9.7-10.4c.2-.6.3-1.1.3-1.7-.1-2.2-1.3-4-3-5z"/></svg><svg viewBox="0 0 22.13 22.12" width="22.13" height="22.12" id="icon-home" y="2449" xmlns="http://www.w3.org/2000/svg"><path d="M18.25 10.11a.55.55 0 0 0-.55.55v9.26a1.11 1.11 0 0 1-1.12 1.14h-11a1.11 1.11 0 0 1-1.12-1.09v-9.31a.555.555 0 0 0-1.11 0v9.26a2.22 2.22 0 0 0 2.23 2.2h11a2.22 2.22 0 0 0 2.23-2.2v-9.26a.55.55 0 0 0-.56-.55z" fill="#000000"/><path d="M12.67.65a2.31 2.31 0 0 0-3.21 0L.16 9.78a.555.555 0 0 0 .78.79l9.29-9.13a1.19 1.19 0 0 1 1.66 0l9.29 9.13a.555.555 0 0 0 .78-.79z" fill="#000000"/></svg><svg viewBox="0 0 36 36" width="36" height="36" id="icon-instagram" y="2472" xmlns="http://www.w3.org/2000/svg"><path fill="#FFF" fill-opacity="0" d="M6 6h24v24H6z"/><g fill="#000000"><path d="M14.5 11.4c-1.7 0-3.2 1.4-3.2 3.2v6.9c0 1.7 1.4 3.2 3.2 3.2h6.9c1.7 0 3.2-1.4 3.2-3.2v-6.9c0-1.7-1.4-3.2-3.2-3.2h-6.9zm6.9 14.5h-6.9c-2.5 0-4.5-2-4.5-4.5v-6.9c0-2.5 2-4.5 4.5-4.5h6.9c2.5 0 4.5 2 4.5 4.5v6.9c0 2.5-2 4.5-4.5 4.5z"/><path d="M18 15.2c-1.5 0-2.7 1.2-2.7 2.7 0 1.5 1.2 2.7 2.7 2.7s2.7-1.2 2.7-2.7c0-1.4-1.2-2.7-2.7-2.7zm0 6.8c-2.2 0-4.1-1.8-4.1-4.1s1.8-4.1 4.1-4.1c2.2 0 4.1 1.8 4.1 4.1S20.2 22 18 22zM23.2 13.7c0 .5-.4 1-1 1-.5 0-1-.4-1-1 0-.5.4-1 1-1s1 .4 1 1"/></g></svg><svg viewBox="0 0 36 36" width="36" height="36" id="icon-linkedin" y="2508" xmlns="http://www.w3.org/2000/svg"><path fill="#FFF" fill-opacity="0" d="M6 6h24v24H6z"/><path fill="#000000" d="M10.4 15.1h3v9.5h-3v-9.5zm1.4-1.1c-1.1 0-1.8-.7-1.8-1.7 0-.9.7-1.7 1.8-1.7s1.8.7 1.8 1.7c.1.9-.6 1.7-1.8 1.7zm13.5 10.7h-3.4v-4.9c0-1.3-.5-2.2-1.7-2.2-.9 0-1.4.6-1.6 1.2-.1.2-.1.5-.1.8v5.2h-3.3v-9.5h3.3v1.5c.2-.7 1.3-1.6 3-1.6 2.1 0 3.8 1.4 3.8 4.3v5.2z"/></svg><svg width="48" height="48" viewBox="0 0 48 48" id="icon-linkedin-vt" y="2544" xmlns="http://www.w3.org/2000/svg"><g fill-rule="nonzero" fill="none"><path fill-opacity="0" fill="#FFF" d="M0 0h48v48H0z"/><path d="M8.8 18.2h6v19h-6v-19zm2.8-2.2C9.4 16 8 14.6 8 12.6c0-1.8 1.4-3.4 3.6-3.4s3.6 1.4 3.6 3.4c.2 1.8-1.2 3.4-3.6 3.4zm27 21.4h-6.8v-9.8c0-2.6-1-4.4-3.4-4.4-1.8 0-2.8 1.2-3.2 2.4-.2.4-.2 1-.2 1.6v10.4h-6.6v-19H25v3c.4-1.4 2.6-3.2 6-3.2 4.2 0 7.6 2.8 7.6 8.6v10.4z" fill="#000000"/></g></svg><svg width="23" height="27" viewBox="0 0 23 27" id="icon-logout" y="2592" xmlns="http://www.w3.org/2000/svg"><defs><path d="M0 2a2 2 0 0 0 1 1.733V7l2-.002V3.733A2 2 0 1 0 0 2z" id="cfa"/><path id="cfc" d="M.74 12.182h2.74V9h8.831V.74H.741v11.442z"/></defs><g fill="none" fill-rule="evenodd"><path d="M2.995 13a.997.997 0 0 0-.995.997v9.059c0 .548.446.996.995.996h14.01a.997.997 0 0 0 .995-.996v-9.059a.997.997 0 0 0-.995-.997H2.995zm14.01 13.052H2.995A3 3 0 0 1 0 23.056v-9.059A3 3 0 0 1 2.995 11h14.01A3 3 0 0 1 20 13.997v9.059a3 3 0 0 1-2.995 2.996z" fill="#000000"/><g transform="translate(8 15)"><mask id="cfb" fill="#fff"><use xlink:href="#cfa"/></mask><path fill="#000000" mask="url(#cfb)" d="M-5 12H9V-5H-5z"/></g><g transform="translate(10)"><mask id="cfd" fill="#fff"><use xlink:href="#cfc"/></mask><path d="M2.74 11.182h7.571V6.439c0-2.04-1.698-3.698-3.785-3.698C4.438 2.74 2.74 4.4 2.74 6.439v4.743zm9.571 2H.741V6.439C.74 3.297 3.335.74 6.525.74c3.191 0 5.785 2.556 5.785 5.698v6.743z" fill="#000000" mask="url(#cfd)"/></g><path d="M-7-4h36v36H-7z"/></g></svg><svg width="16" height="23" viewBox="0 0 16 23" id="icon-map-pin" y="2619" xmlns="http://www.w3.org/2000/svg"><defs><path d="M7 0H0v6h20V0h-7v4H7V0z" id="cga"/></defs><g transform="translate(-10 -6)" fill="none" fill-rule="evenodd"><path d="M0 0h36v36H0z"/><path d="M18 7c-4.05 0-7.333 3.385-7.333 7.56a7.64 7.64 0 0 0 .9 3.625L18 29l6.436-10.814a7.712 7.712 0 0 0 .897-3.626C25.333 10.385 22.05 7 18 7z" stroke="#000000"/><circle stroke="#000000" cx="18" cy="14.5" r="2.5"/></g></svg><svg width="96" height="96" viewBox="0 0 96 96" id="icon-map-widepin" y="2642" xmlns="http://www.w3.org/2000/svg"><g transform="translate(19.5 10)" stroke="#000000" stroke-width="2.2" fill="none" fill-rule="evenodd"><circle cx="28.024" cy="28.024" r="11.112"/><path d="M28.048.52C12.858.52.544 12.834.544 28.024A28.536 28.536 0 0 0 6.16 44.68c3.048 4.44 21.912 27.216 21.912 27.216S46.936 49.144 49.96 44.68a28.536 28.536 0 0 0 5.616-16.656A27.504 27.504 0 0 0 28.048.52z"/></g></svg><svg id="icon-menu" viewBox="0 0 36 36" width="36" height="36" y="2738" xmlns="http://www.w3.org/2000/svg"><style>.cist0{fill:none}.cist1{fill:#000000}</style><path class="cist0" d="M0 0h36v36H0z"/><path class="cist1" d="M6 8h24v2H6zM6 17h24v2H6zM6 26h24v2H6z"/></svg><svg viewBox="279.6 402.9 36 36" width="36" height="36" id="icon-minus-circle" y="2774" xmlns="http://www.w3.org/2000/svg"><path fill="#000000" d="M297.5 406.9c7.7 0 14 6.3 14 14s-6.3 14-14 14-14.1-6.2-14.1-14 6.4-14 14.1-14zm0-1c-8.3 0-15 6.6-15 15s6.6 14.9 15 14.9 14.9-6.7 14.9-15c.1-8.2-6.6-14.9-14.9-14.9z"/><path fill="#000000" d="M304.958 421.51h-14.7v-1.1h14.7z"/><path fill="none" d="M279.6 402.9h36v36h-36z"/></svg><svg id="icon-moon" viewBox="0 0 36 36" width="36" height="36" y="2810" xmlns="http://www.w3.org/2000/svg"><style>.ckst0{fill:none;stroke:#000000}</style><path class="ckst0" d="M21.2 8c.4 1.1.6 2.3.6 3.5 0 5.7-4.6 10.3-10.3 10.3-1.2 0-2.4-.2-3.5-.6 1.4 4 5.2 6.8 9.7 6.8C23.4 28 28 23.4 28 17.7c0-4.5-2.8-8.3-6.8-9.7z"/></svg><svg width="36" height="36" viewBox="0 0 36 36" id="icon-people" y="2846" xmlns="http://www.w3.org/2000/svg"><path d="M18 28.34a5.91 5.91 0 0 0-3.87-5.53 3.34 3.34 0 0 0 1.29-2.63 3.41 3.41 0 0 0-6.83 0 3.34 3.34 0 0 0 1.29 2.63A5.91 5.91 0 0 0 6 28.34M30 28.34a5.91 5.91 0 0 0-3.87-5.53 3.34 3.34 0 0 0 1.29-2.63 3.41 3.41 0 0 0-6.83 0 3.34 3.34 0 0 0 1.29 2.63A5.91 5.91 0 0 0 18 28.34" fill="none" stroke="#000000" stroke-width=".72"/><path d="M22.8 16.82a5.91 5.91 0 0 0-2.73-2.14 3.35 3.35 0 1 0-4.17 0 5.91 5.91 0 0 0-2.7 2.1" fill="none" stroke="#000000" stroke-width=".72"/></svg><svg id="icon-percent" viewBox="0 0 36 36" width="36" height="36" y="2882" xmlns="http://www.w3.org/2000/svg"><style>.cmst0,.cmst1{fill:none;stroke:#000000}.cmst1{stroke-linecap:round;stroke-linejoin:round}</style><path class="cmst0" d="M15.2 11.2c0 1.2-1 2.2-2.2 2.2-1.2 0-2.2-1-2.2-2.2 0-1.2 1-2.2 2.2-2.2 1.2 0 2.2 1 2.2 2.2zm10 13.6c0 1.2-1 2.2-2.2 2.2-1.2 0-2.2-1-2.2-2.2 0-1.2 1-2.2 2.2-2.2 1.2 0 2.2 1 2.2 2.2z"/><path class="cmst1" d="M12.3 25.7l12.4-15.3"/></svg><svg id="icon-play" viewBox="0 0 24 24" width="24" height="24" y="2918" xmlns="http://www.w3.org/2000/svg"><style>.cnst0{fill:none}.cnst1{fill:#000000}</style><path class="cnst0" d="M0 0h24v24H0z"/><path class="cnst1" d="M7.5 18.5c-.1 0-.2 0-.3-.1-.1-.1-.2-.2-.2-.4V6c0-.2.1-.3.2-.4.1-.1.3-.1.5 0l11.5 6c.2.1.3.3.3.4s-.1.4-.3.4l-11.5 6c0 .1-.1.1-.2.1zM8 6.8v10.4l9.9-5.2L8 6.8z"/></svg><svg id="icon-play-circle" viewBox="0 0 36 36" width="36" height="36" y="2942" xmlns="http://www.w3.org/2000/svg"><style>.cost0{fill:none}.cost1{fill:#000000}</style><path class="cost1" d="M18 4c7.7 0 14 6.3 14 14s-6.3 14-14 14S4 25.7 4 18 10.3 4 18 4m0-1C9.7 3 3 9.7 3 18s6.7 15 15 15 15-6.7 15-15S26.3 3 18 3z"/><path class="cost0" d="M0 0h36v36H0z"/><path class="cost1" d="M13.5 24.5c-.1 0-.2 0-.3-.1-.1-.1-.2-.2-.2-.4V12c0-.2.1-.3.2-.4s.3-.1.5 0l11.5 6c.2.1.3.3.3.4s-.1.4-.3.4l-11.5 6c0 .1-.1.1-.2.1zm.5-11.7v10.4l9.9-5.2-9.9-5.2z"/></svg><svg width="62" height="62" viewBox="0 0 62 62" id="icon-play-circle-60" y="2978" xmlns="http://www.w3.org/2000/svg"><g transform="translate(1 1)" stroke="#000000" fill="none" fill-rule="evenodd"><ellipse cx="30" cy="30" rx="30" ry="30"/><path d="M42.154 31.154l-20.308 11v-22z"/></g></svg><svg width="92" height="92" viewBox="0 0 92 92" id="icon-play-circle-90" y="3040" xmlns="http://www.w3.org/2000/svg"><g transform="translate(1 1)" stroke="#000000" stroke-width="1.5" fill="none" fill-rule="evenodd"><circle cx="45" cy="45" r="45"/><path d="M63.23 46.73l-30.46 16.5v-33z"/></g></svg><svg id="icon-plus" viewBox="0 0 24 24" width="24" height="24" y="3132" xmlns="http://www.w3.org/2000/svg"><style>.crst0{fill:none}.crst1{fill:#000000}</style><path class="crst1" d="M5 11.5h14v1H5z"/><path class="crst1" d="M11.5 5h1v14h-1z"/><path class="crst0" d="M0 0h24v24H0z"/></svg><svg viewBox="279.6 402.9 36 36" width="36" height="36" id="icon-plus-circle" y="3156" xmlns="http://www.w3.org/2000/svg"><path fill="#000000" d="M297.6 407c7.7 0 14 6.3 14 14s-6.3 14-14 14-14.1-6.2-14.1-14 6.4-14 14.1-14zm0-1c-8.3 0-15.1 6.7-15.1 15.1s6.7 14.9 15.1 14.9 14.9-6.7 14.9-15-6.6-15-14.9-15z"/><g fill="#000000"><path d="M298.08 429.446h-1v-17h1z"/><path d="M306.117 421.487h-17v-1h17z"/></g><path fill="none" d="M279.6 402.9h36v36h-36z"/></svg><svg width="48" height="48" viewBox="0 0 48 48" id="icon-plus-vt" y="3192" xmlns="http://www.w3.org/2000/svg"><g fill="none" fill-rule="evenodd"><path fill="#000000" fill-rule="nonzero" d="M10 23h28v2H10z"/><path fill="#000000" fill-rule="nonzero" d="M23 10h2v28h-2z"/><path d="M0 0h48v48H0z"/></g></svg><svg id="icon-preview" viewBox="0 0 24 24" width="24" height="24" y="3240" xmlns="http://www.w3.org/2000/svg"><style>.cust0{fill:none}.cust1{fill:#000000}</style><path class="cust1" d="M12 7c4 0 7.6 3.4 8.9 4.9.1.1.1.2 0 .3C19.6 13.6 16 17 12 17s-7.6-3.4-8.9-4.9c-.1-.1-.1-.2 0-.3C4.4 10.4 8 7 12 7m0-1c-4.4 0-8.2 3.5-9.7 5.2-.4.5-.4 1.2 0 1.6C3.8 14.5 7.6 18 12 18c4.4 0 8.2-3.5 9.7-5.2.4-.5.4-1.2 0-1.6C20.2 9.5 16.4 6 12 6z"/><path class="cust1" d="M12 9.7c1.3 0 2.3 1 2.3 2.3s-1 2.3-2.3 2.3-2.3-1-2.3-2.3 1-2.3 2.3-2.3m0-1c-1.8 0-3.3 1.5-3.3 3.3s1.5 3.3 3.3 3.3 3.3-1.5 3.3-3.3-1.5-3.3-3.3-3.3z"/><path class="cust0" d="M0 0h24v24H0z"/></svg><svg width="22" height="21" viewBox="0 0 22 21" id="icon-profile" y="3264" xmlns="http://www.w3.org/2000/svg"><g fill="none" fill-rule="evenodd"><path d="M-7-7h36v36H-7z"/><path d="M21 21c0-4.386-2.684-8.128-6.458-9.595a5.881 5.881 0 0 0 2.149-4.568C16.69 3.613 14.143 1 11 1S5.31 3.613 5.31 6.837c0 1.85.84 3.498 2.148 4.568C3.684 12.872 1 16.614 1 21" stroke="#000000" stroke-width="2" stroke-linejoin="round"/></g></svg><svg viewBox="0 0 24 24" width="24" height="24" id="icon-radiobutton-off" y="3285" xmlns="http://www.w3.org/2000/svg"><path d="M12.002.955c5.828 0 10.506 4.678 10.506 10.506S17.83 21.967 12.002 21.967 1.496 17.285 1.496 11.461 6.174.955 12.002.955m0-.955C5.698 0 .378 5.16.541 11.461c.166 6.394 5.508 11.653 11.461 11.461 6.303 0 11.461-5.157 11.461-11.461S18.305 0 12.002 0z" fill="#000000"/></svg><svg id="icon-radiobutton-on" viewBox="0 0 24 24" width="24" height="24" y="3309" xmlns="http://www.w3.org/2000/svg"><style>.cxst1{fill:#000000}.cxst18{fill:#fff}</style><path class="cxst1" d="M12 0c6.6 0 12 5.4 12 12s-5.4 12-12 12S0 18.6 0 12 5.4 0 12 0z"/><path class="cxst18" d="M12 9c1.7 0 3 1.3 3 3s-1.3 3-3 3-3-1.3-3-3 1.3-3 3-3m0-1c-2.2 0-4 1.8-4 4s1.8 4 4 4 4-1.8 4-4-1.8-4-4-4z"/></svg><svg id="icon-search" viewBox="0 0 36 36" width="36" height="36" y="3333" xmlns="http://www.w3.org/2000/svg"><style>.cyst0{fill:none}.cyst1{fill:#000000}</style><path class="cyst0" d="M0 0h36v36H0z"/><path class="cyst1" d="M16.5 9c4.1 0 7.5 3.4 7.5 7.5S20.6 24 16.5 24 9 20.6 9 16.5 12.4 9 16.5 9m0-2C11.3 7 7 11.3 7 16.5s4.3 9.5 9.5 9.5 9.5-4.3 9.5-9.5S21.7 7 16.5 7z"/><path transform="rotate(45.001 26.453 26.453)" class="cyst1" d="M21.4 25.5h10v2h-10z"/></svg><svg id="icon-shopping-cart" viewBox="0 0 36 36" width="36" height="36" y="3369" xmlns="http://www.w3.org/2000/svg"><style>.czst0{fill:#000000}.czst1{fill:none;stroke:#000000}</style><path class="czst0" d="M12.5 19.3c-.4 0-.8.3-.8.8 0 .4.3.8.8.8h15.3c.4 0 .7-.3.7-.6l1.5-7.4c.1-.4-.2-.8-.6-.9-.4-.1-.8.2-.9.6l-1.4 6.8c0-.1-14.6-.1-14.6-.1z"/><path class="czst0" d="M12.3 23.5h15.2c.4 0 .8-.3.8-.8 0-.4-.3-.8-.8-.8h-14L10.9 8.3H6.8c-.5 0-.8.4-.8.8s.3.8.8.8h2.9l2.6 13.6z"/><ellipse class="czst1" cx="16.4" cy="26.3" rx="1.4" ry="1.4"/><ellipse class="czst1" cx="24" cy="26.3" rx="1.4" ry="1.4"/></svg><svg width="36" height="36" viewBox="0 0 36 36" id="icon-signup" y="3405" xmlns="http://www.w3.org/2000/svg"><rect x="6" y="8.71" width="24" height="15.88" rx=".89" ry=".89" fill="none" stroke="#000000" stroke-miterlimit="10" stroke-width=".25"/><path fill="none" stroke="#000000" stroke-miterlimit="10" stroke-width=".25" d="M16.37 24.6l-2.32 2.69M19.63 24.6l2.32 2.69"/><circle cx="18" cy="22.91" r=".47" fill="#000000"/><circle cx="17.96" cy="16.11" r="2.84" fill="none" stroke="#000000" stroke-linecap="round" stroke-linejoin="round" stroke-width=".25"/><path fill="none" stroke="#000000" stroke-linecap="round" stroke-linejoin="round" stroke-width=".25" d="M16.58 15.96l1.15 1.15 1.83-1.83"/></svg><svg viewBox="0 0 36 36" width="36" height="36" id="icon-snapchat" y="3441" xmlns="http://www.w3.org/2000/svg"><path fill="#FFF" fill-opacity="0" d="M6 6h24v24H6z"/><path fill="#000000" d="M25.8 22.1s0-.1 0 0c-.2-.1-.4-.2-.5-.2-.8-.3-1.5-.8-2.1-1.5-.3-.4-.6-.8-.7-1.3-.1-.2-.1-.4 0-.5.2-.2.4-.3.7-.5.3-.1.7-.2 1-.5 0 0 .1-.1.1-.2v-.1-.3c-.1-.2-.2-.3-.3-.3-.2-.1-.4-.1-.6-.1-.2.1-.4.1-.5.2h-.6v-.1-1.1-1.8c-.2-1-.8-1.9-1.6-2.4-.6-.4-1.3-.6-2-.7H18c-1 0-2 .3-2.8.9-.6.5-1.1 1.1-1.3 1.8-.3.7-.3 1.4-.2 2.1 0 .5.1 1 0 1.4H13c-.2 0-.3-.1-.5-.1s-.4 0-.5.1c-.1.1-.3.2-.3.4 0 .1.1.2.2.3.1.1.1.1.2.1.4.2.7.3 1.1.5.2.1.4.3.5.5.1.3 0 .5-.2.8-.4.8-.9 1.4-1.6 1.9l-1.2.6c-.1 0-.3.1-.4.3 0 .1 0 .3.1.3.1.1.1.1.2.1.4.2.8.3 1.1.4.3.1.5.1.7.2 0 0 0 .1.1.2.1.2.1.4.2.7 0 .1.1.1.2.1h.3c.6-.1 1.2-.2 1.8-.1.6.2 1.1.6 1.7.9.4.2.8.5 1.3.5h1.1c.3 0 .6-.1.9-.3.6-.3 1.1-.8 1.7-1 .2-.1.4-.1.7-.1.5 0 1 0 1.4.1h.1c.1 0 .1-.1.2-.1v-.1s0-.1 0 0c.1-.3.1-.6.3-.7.1-.1.2-.1.3-.1.4 0 .8-.2 1.2-.3.1-.1.3-.1.5-.3-.3-.3-.4-.5-.6-.6"/></svg><svg id="icon-speed-lines" viewBox="0 0 36 36" width="36" height="36" y="3477" xmlns="http://www.w3.org/2000/svg"><style>.dcst0{fill:none;stroke:#000000;stroke-linecap:round;stroke-linejoin:round}</style><path class="dcst0" d="M7 12.4h16.9M14.1 18H31M7 23.6h16.9"/></svg><svg id="icon-steps" viewBox="0 0 36 36" width="36" height="36" y="3513" xmlns="http://www.w3.org/2000/svg"><style>.ddst0{fill:none;stroke:#000000;stroke-linecap:round;stroke-linejoin:round}</style><path class="ddst0" d="M10 28v-6h6m0 0v-6h6m0 0v-6h6"/></svg><svg viewBox="0 0 36 36" width="36" height="36" id="icon-twitter" y="3549" xmlns="http://www.w3.org/2000/svg"><path fill="#FFF" fill-opacity="0" d="M6 6h24v24H6z"/><path fill="#000000" d="M24.1 13.4c.7-.4 1.2-1 1.4-1.8-.6.4-1.3.6-2.1.8-.6-.6-1.5-1-2.4-1-1.8 0-3.3 1.4-3.3 3.2 0 .2 0 .5.1.7-2.7-.1-5.1-1.4-6.8-3.3-.3.5-.4 1-.4 1.6 0 1.1.6 2.1 1.5 2.6-.5 0-1-.2-1.5-.4 0 1.5 1.1 2.8 2.6 3.1-.3.1-.6.1-.9.1-.2 0-.4 0-.6-.1.4 1.3 1.6 2.2 3.1 2.2-1.1.9-2.5 1.4-4.1 1.4h-.8c1.5.9 3.2 1.4 5 1.4 6 0 9.3-4.9 9.3-9.1v-.4c.6-.4 1.2-1 1.6-1.6-.4.3-1 .5-1.7.6z"/></svg><svg id="icon-twitter-outline" viewBox="0 0 36 36" width="36" height="36" y="3585" xmlns="http://www.w3.org/2000/svg"><style>.dfst0,.dfst1{fill:none}.dfst1{stroke:#000000;stroke-linecap:round;stroke-linejoin:round}</style><g id="dfMWC-Final"><g id="dfnokia.com_icon_twitter_outlined_36" transform="translate(-4 -7)"><g id="dfLayer_1_1_"><path id="dfRectangle-path" class="dfst0" d="M10 14.3h24v20.4H10z"/><path id="dfShape" class="dfst1" d="M30 19.3c1-.5 1.6-1.3 1.9-2.4-.8.6-1.8 1-2.8 1.1-.8-.8-2-1.3-3.2-1.3-2.4 0-4.3 1.9-4.3 4.2 0 .4 0 .6.1 1-3.7-.1-7-1.8-9.1-4.4-.4.7-.6 1.4-.6 2.2 0 1.4.7 2.8 1.9 3.5-.7 0-1.4-.2-2-.5 0 2 1.6 3.7 3.5 4.2-.4.1-.7.1-1.2.1-.2 0-.6 0-.8-.1.6 1.7 2.2 2.9 4.1 3-1.4 1.1-3.4 1.8-5.4 1.8H11c1.9 1.2 4.2 1.9 6.7 1.9 8.3 0 12.7-6.5 12.7-12.1v-.6c.8-.6 1.6-1.3 2.2-2.2-.9.3-1.7.5-2.6.6z"/></g></g></g></svg><svg width="48" height="48" viewBox="0 0 48 48" id="icon-twitter-vt" y="3621" xmlns="http://www.w3.org/2000/svg"><g fill-rule="nonzero" fill="none"><path fill-opacity="0" fill="#FFF" d="M0 0h48v48H0z"/><path d="M36.2 14.8c1.4-.8 2.4-2 2.8-3.6-1.2.8-2.6 1.2-4.2 1.6-1.2-1.2-3-2-4.8-2-3.6 0-6.6 2.8-6.6 6.4 0 .4 0 1 .2 1.4-5.4-.2-10.2-2.8-13.6-6.6-.6 1-.8 2-.8 3.2 0 2.2 1.2 4.2 3 5.2-1 0-2-.4-3-.8 0 3 2.2 5.6 5.2 6.2-.6.2-1.2.2-1.8.2-.4 0-.8 0-1.2-.2.8 2.6 3.2 4.4 6.2 4.4-2.2 1.8-5 2.8-8.2 2.8H7.8c3 1.8 6.4 2.8 10 2.8 12 0 18.6-9.8 18.6-18.2v-.8c1.2-.8 2.4-2 3.2-3.2-.8.6-2 1-3.4 1.2z" fill="#000000"/></g></svg><svg width="36" height="36" viewBox="0 0 36 36" id="icon-upload" y="3669" xmlns="http://www.w3.org/2000/svg"><path d="M20.8 29.88H7.75a.6.6 0 0 1-.6-.6V6.6a.6.6 0 0 1 .6-.6h17a.6.6 0 0 1 .6.6v12.75M10.49 9.93H22.2M10.49 15.01H22.2M10.49 20.08h9.65M10.49 25.16h6.08" fill="none" stroke="#000000" stroke-linecap="round" stroke-linejoin="round" stroke-width=".33"/><circle cx="23.71" cy="24.9" r="5.1" fill="none" stroke="#000000" stroke-linecap="round" stroke-linejoin="round" stroke-width=".33"/><path d="M23.71 22.5a.24.24 0 0 0-.15.06l-1.23 1.16a.25.25 0 0 0 0 .32.23.23 0 0 0 .32 0l.87-.82v3.85a.22.22 0 1 0 .44 0v-3.85l.87.82a.24.24 0 0 0 .32 0 .24.24 0 0 0 0-.32l-1.24-1.15a.21.21 0 0 0-.15-.06z" fill="#000000"/></svg><svg id="icon-waves" viewBox="0 0 36 36" width="36" height="36" y="3705" xmlns="http://www.w3.org/2000/svg"><style>.dist0{fill:none;stroke:#000000}</style><path class="dist0" d="M7 20.5c3.1 2.8 7.5 3.1 11.4 1 3.3-1.8 7.3-2.1 10.6.6M7 13.6c3.1 2.8 7.5 3.1 11.4 1 3.3-1.8 7.3-2.1 10.6.6"/></svg><svg width="36" height="36" viewBox="0 0 36 36" id="icon-wechat" y="3741" xmlns="http://www.w3.org/2000/svg"><g fill="#000000" fill-rule="nonzero"><path d="M21.671 14.889c-1.744.093-3.26.637-4.492 1.864-1.244 1.24-1.812 2.76-1.656 4.645-.682-.087-1.303-.183-1.927-.237-.216-.018-.472.008-.655.114-.606.352-1.187.749-1.876 1.191.126-.587.208-1.102.353-1.597.106-.364.057-.566-.27-.803-2.093-1.52-2.975-3.793-2.315-6.134.611-2.165 2.112-3.478 4.15-4.163 2.784-.934 5.911.019 7.603 2.29.611.82.986 1.74 1.085 2.83zm-8.027-.73a.816.816 0 0 0-.773-.827.79.79 0 0 0-.813.777.784.784 0 0 0 .764.823.803.803 0 0 0 .822-.773zm4.188-.827a.817.817 0 0 0-.786.815.795.795 0 0 0 .807.788c.444-.005.78-.357.776-.812a.786.786 0 0 0-.797-.79z"/><path d="M25.529 26.546c-.563-.255-1.08-.638-1.63-.696-.549-.058-1.125.263-1.698.323-1.747.181-3.312-.314-4.603-1.526-2.454-2.308-2.103-5.845.736-7.736 2.524-1.68 6.225-1.12 8.004 1.212 1.553 2.034 1.37 4.735-.525 6.444-.549.495-.746.902-.394 1.554.065.12.072.273.11.425zm-6.413-6.311a.674.674 0 0 0 .005-1.348.68.68 0 0 0-.671.698c.012.359.31.65.666.65zm4.134-1.346a.668.668 0 0 0-.658.644.659.659 0 0 0 .65.697.651.651 0 0 0 .657-.64.665.665 0 0 0-.649-.701z"/></g></svg><svg width="36" height="36" viewBox="0 0 36 36" id="icon-weibo" y="3777" xmlns="http://www.w3.org/2000/svg"><path d="M13.877 20.174c-1.568.316-2.625 1.629-2.363 2.933.263 1.305 1.746 2.108 3.313 1.793 1.567-.315 2.625-1.627 2.363-2.932-.263-1.306-1.747-2.108-3.313-1.794zm12.768-5.07a4.829 4.829 0 0 0-3.754-3.751.843.843 0 1 0-.34 1.652 3.138 3.138 0 0 1 2.44 2.438.845.845 0 0 0 1.654-.34zm3.355.123A7.233 7.233 0 0 0 22.764 8a.844.844 0 1 0 0 1.688 5.545 5.545 0 0 1 5.547 5.542.844.844 0 0 0 1.689 0v-.003zM15.872 26.955c-3.89.385-7.248-1.38-7.501-3.948-.252-2.566 2.697-4.96 6.587-5.345 3.891-.388 7.249 1.38 7.5 3.945.253 2.567-2.695 4.96-6.586 5.348zm7.781-8.51c-.33-.1-.558-.17-.385-.611.376-.96.414-1.79.008-2.38-.763-1.109-2.851-1.049-5.243-.03 0 0-.751.335-.56-.271.369-1.204.313-2.212-.26-2.794-1.296-1.32-4.749.05-7.71 3.06C7.287 17.673 6 20.064 6 22.129c0 3.954 4.983 6.598 9.859 6.598 6.391 0 10.643-4.017 10.643-7.016 0-1.812-1.5-2.84-2.849-3.266z" fill="#000000" fill-rule="nonzero"/></svg><svg viewBox="0 0 36 36" width="36" height="36" id="icon-youtube" y="3813" xmlns="http://www.w3.org/2000/svg"><path fill="#FFF" fill-opacity="0" d="M6 6h24v24H6z"/><path fill="#000000" d="M26 21.2V15s0-3-2.8-3H12.8S10 12 10 15v6.2s0 3 2.8 3h10.5c-.1 0 2.7 0 2.7-3zm-4.9-3.1l-5.2 3.3v-6.7l5.2 3.4z"/></svg><svg id="icon-zoom-in" viewBox="0 0 24 24" width="24" height="24" y="3849" xmlns="http://www.w3.org/2000/svg"><style>.dmst0{fill:none}.dmst1{fill:#000000}</style><path class="dmst0" d="M0 0h24v24H0z"/><path class="dmst1" d="M11.5 6c3 0 5.5 2.5 5.5 5.5S14.5 17 11.5 17 6 14.5 6 11.5 8.5 6 11.5 6m0-1C7.9 5 5 7.9 5 11.5S7.9 18 11.5 18s6.5-2.9 6.5-6.5S15.1 5 11.5 5z"/><path transform="rotate(45.001 18 18)" class="dmst1" d="M15.2 17.5h5.7v1h-5.7z"/><path class="dmst1" d="M8 11h7v1H8z"/><path class="dmst1" d="M11 8h1v7h-1z"/></svg><svg id="icon-zoom-out" viewBox="0 0 24 24" width="24" height="24" y="3873" xmlns="http://www.w3.org/2000/svg"><style>.dnst0{fill:none}.dnst1{fill:#000000}</style><path class="dnst0" d="M0 0h24v24H0z"/><path class="dnst1" d="M11.5 6c3 0 5.5 2.5 5.5 5.5S14.5 17 11.5 17 6 14.5 6 11.5 8.5 6 11.5 6m0-1C7.9 5 5 7.9 5 11.5S7.9 18 11.5 18s6.5-2.9 6.5-6.5S15.1 5 11.5 5z"/><path transform="rotate(45.001 18 18)" class="dnst1" d="M15.2 17.5h5.7v1h-5.7z"/><path class="dnst1" d="M8 11h7v1H8z"/></svg><svg viewBox="0 0 800 134.84" width="200" height="40" id="logo-nokia" y="3897" xmlns="http://www.w3.org/2000/svg"><path fill="#000000" d="M38.52 133.18H0v-131h66.62l76.43 97.8V2.18h38.52v131H116.3L38.52 33.71v99.47m327.35-40.51c0 18.21-3.22 24.49-8.55 30.51-8.17 8.96-20.06 11.66-42.97 11.66h-65.77c-22.91 0-34.82-2.7-42.98-11.66-5.33-6.02-8.55-12.3-8.55-30.51v-50.5c0-18.2 3.22-24.47 8.55-30.5C213.77 2.7 225.67 0 248.58 0h65.77c22.91 0 34.8 2.7 42.97 11.67 5.33 6.03 8.55 12.3 8.55 30.5v50.5m-53.14 8.98c8.8 0 11.9-.52 14.01-2.44 1.97-1.79 2.84-4.1 2.84-11.8V47.43c0-7.7-.87-9.99-2.84-11.79-2.11-1.93-5.21-2.44-14.01-2.44h-62.54c-8.8 0-11.9.51-14 2.44-1.98 1.8-2.85 4.09-2.85 11.79v39.98c0 7.7.87 10.01 2.85 11.8 2.1 1.92 5.2 2.44 14 2.44h62.54M421.85 2.18v131H381.6v-131h40.25m68 0h53.14l-71.72 61.27 80.89 69.73H495.3l-73.45-68.32 68-62.68m69.73 0h40.26v131h-40.26m193.73 0l-11.91-22.82h-77.89l-11.77 22.81h-44.47L678.62 2.18h50.04l71.34 131h-46.69M677.5 81.91h50.05l-25.03-47.43-25.02 47.43"/></svg></svg>